<?xml version="1.0" standalone="no"?>
<!DOCTYPE svg PUBLIC "-//W3C//DTD SVG 1.1//EN" "http://www.w3.org/Graphics/SVG/1.1/DTD/svg11.dtd" >
<svg xmlns="http://www.w3.org/2000/svg">
<metadata>Generated by IcoMoon</metadata>
<defs>
<font id="icomoon" horiz-adv-x="1024">
<font-face units-per-em="1024" ascent="896" descent="-128" />
<missing-glyph horiz-adv-x="1024" />
<glyph unicode="&#x20;" d="" />
<glyph unicode="&#xe098;" glyph-name="rotate" d="M497.408-3.851c-0.080 0.192-0.272 0.32-0.384 0.48l-91.92 143.664c-6.528 10.72-20.688 14.528-31.728 8.512l-8.192-5.040c-11.008-6-10.768-21.536-4.256-32.256l58.928-91.408c-5.024 1.104-10.096 2-15.056 3.296-103.184 26.992-190.496 96.832-239.536 191.6-46.336 89.52-55.040 191.696-24.512 287.744 30.512 96.048 99.776 174.464 189.296 220.784 15.248 7.888 21.2 26.64 13.312 41.856-7.872 15.264-26.64 21.232-41.856 13.328-104.272-53.952-184.4-145.28-219.968-257.152-35.552-111.856-25.424-230.88 28.544-335.136 57.136-110.336 158.832-191.664 279.024-223.136 1.36-0.352 2.784-0.56 4.16-0.912l-81.312-41.232c-11.008-6.032-14.656-19.632-8.128-30.352l3.152-8.176c6.56-10.72 17.84-14.528 28.816-8.512l148.832 76.208c0.192 0.128 0.384 0.096 0.576 0.224l9.984 5.456c5.52 3.024 9.168 7.968 10.624 13.504 1.52 5.52 0.816 11.664-2.448 16.992l-5.952 9.664zM913.904 573.893c-57.056 110.304-155.584 191.632-275.76 223.12-8.56 2.24-17.312 3.984-26.048 5.712l79.824 40.48c11.008 6.032 17.568 19.632 11.040 30.368l-3.152 8.16c-6.56 10.736-20.752 14.528-31.728 8.528l-148.816-76.208c-0.176-0.112-0.384-0.080-0.576-0.208l-9.968-5.472c-5.536-3.040-9.168-7.968-10.624-13.504-1.52-5.52-0.816-11.648 2.464-16.976l5.92-9.712c0.096-0.192 0.272-0.304 0.384-0.496l91.92-143.648c6.512-10.736 20.688-14.528 31.712-8.512l7.216 5.024c11.008 6 11.728 21.536 5.232 32.24l-59.2 91.856c13.008-2 25.968-4.416 38.624-7.76 103.232-27.040 187.392-96.864 236.4-191.568 46.32-89.52 55.024-191.696 24.48-287.728-30.512-96.048-96.656-174.448-186.176-220.816-15.232-7.888-21.168-26.608-13.28-41.872 5.52-10.64 16.336-16.768 27.6-16.768 4.8 0 9.664 1.12 14.272 3.488 104.272 53.936 181.248 145.28 216.816 257.12 35.536 111.904 25.392 230.928-28.576 335.152z" />
<glyph unicode="&#xe60a;" glyph-name="upload-file" d="M823.709-14.547h-626.157q-38.394 0-65.813 27.878t-27.419 68.097v607.878q0 40.217 27.419 68.097t65.813 27.878h156.318q39.308 0 66.73-27.878t27.419-68.097h375.692q38.394 0 65.813-27.878t27.419-67.189v-512.811q0-40.217-27.419-68.097t-65.813-27.878zM867.591 607.043q0 12.798-9.14 22.396t-21.938 9.598h-651.753q-6.399 0-12.339-2.741t-10.057-6.858-6.399-10.057-2.282-12.339v-539.321q0-12.798 9.14-21.938t21.938-9.14h651.753q12.798 0 21.938 9.14t9.14 21.938v539.321zM798.119 327.327h-69.471v-95.067q0-13.716-9.598-22.855t-22.396-9.14h-62.154q-12.798 0-21.938 9.14t-9.14 22.855v95.067h-57.591q-14.617 0-16.915 4.117t10.516 17.816l94.149 96.886q23.768 23.768 31.536 23.768t31.536-23.768l107.865-96.886q12.798-13.716 10.973-17.816t-17.366-4.117zM245.996 392.224v52.103h232.188v-52.103h-232.188zM245.996 299.909v53.015h232.188v-53.015h-232.188zM245.996 208.489v52.103h232.188v-52.103h-232.188z" />
<glyph unicode="&#xe60e;" glyph-name="triangle-tag" d="M959 829.709l-894-894v894h894z" />
<glyph unicode="&#xe61f;" glyph-name="new" horiz-adv-x="1029" d="M387 894.709l-387-387v-637l1028 1024h-641zM295 337.709l-197 42h-1l120-120-19-19-149 149 21 21 199-42h1l-121 121 19 19 149-149zM349 391.709l-149 149 103 103 16-17-83-83 48-47 77 77 17-16-78-78 52-51 84 83 16-16zM521 564.709l-20-21-188 111 21 20 153-95v1l-90 157 21 22 157-91-93 154 20 20 109-189-21-20-159 91-1-1z" />
<glyph unicode="&#xe625;" glyph-name="solid-success" d="M512.5 831.207q-61 0-119-16.5t-107.5-45-91-70-70-90.5-45-107.5-16.5-119.5q0-91 35.5-174t96-143 143.5-95.5 174-35.5q73 0 141.5 22.5t123.5 64 96.5 97 64 123.5 22.5 141q0 171-114 298-109 123-271 146-32 4-63 5zM782.5 508.207l-310-317q-2-3-4-5-9-9-22-9t-22 9l-154 157q-5 4-7 10t-2 12 2 12 7 10q9 10 22 10t22-10l131-133 293 298q9 10 22 10t22-10q6-6 8-14t0-16-8-14z" />
<glyph unicode="&#xe626;" glyph-name="solid-error" d="M512.5 831.207q-91 0-174-35.5t-143.5-95.5-96-143-35.5-174.5 35.5-174.5 96-143 143.5-95.5 174-35.5q73 0 141.5 22.5t123.5 64 96.5 97 64 123.5 22.5 141q0 171-114 298-109 123-271 146-32 4-63 5zM690.5 249.207q9-9 9-22t-9-23q-6-6-14.5-8t-16.5 0-14 8l-133 134-133-134q-2-2-4.5-3.5t-5.5-2.5l-4-2q-3-1-6-1h-6q-2 0-4 1l-6 2q-2 1-4.5 2.5t-4.5 3.5q-4 5-6.5 11t-2.5 12 2.5 11.5 6.5 10.5l133 133-133 133q-6 6-8 14.5t0 16.5 8 14q2 2 4 3.5t4 2.5 5 2h4q3 1 5.5 1t5-0.5 4.5-1 4.5-1.5 4.5-2.5 4-3.5l133-133 133 133q9 9 22 9t23-9q4-5 6.5-10.5t2.5-11.5-2.5-12-6.5-11l-134-133z" />
<glyph unicode="&#xe627;" glyph-name="solid-tip" d="M512 830.207q-73 0-141.5-23t-123.5-64-96-96-63.5-123.5-22.5-141.5q0-91 35-173.5t95-142.5 143-95.5 174-35.5 173.5 35.5 142.5 95.5 95.5 142.5 35.5 173.5-35.5 174-95.5 143-142.5 95.5-173.5 35.5zM474 593.207q0 14 10.5 25t25.5 11q7 0 13.5-3t11.5-8 7.5-11.5 2.5-13.5v-273q0-6-1.5-11.5t-5-10-8-8-10-5-10.5-1.5q-10 0-18 4.5t-13 13-5 18.5v273zM510 135.207q-21 0-36 15t-15 36.5 15 36.5 36 15 35.5-15 14.5-36q0-7-1.5-14t-5-12.5-8-10.5-10-8-12-5-13.5-2z" />
<glyph unicode="&#xe628;" glyph-name="solid-info" d="M512 830.209q-73 0-141.5-23t-123.5-64-96-96-63.5-123.5-22.5-141.5q0-91 35-173.5t95-142.5 143-95.5 174-35.5 173.5 35.5 142.5 95.5 95.5 142.5 35.5 173.5q0 170-113 297-109 123-271 146-32 4-63 5zM512.5 633.209q23.5 0 40-16.5t16.5-40-16.5-40-39.5-16.5q-12 0-22 4.5t-18 12-12.5 18-4.5 21.5q0 24 16.5 40.5t40 16.5zM562 140.209h-40q-15 0-28.5 11t-13.5 23v229h-14q-16 0-27 11t-11 26q0 10 5 19t14 14 19 5h47q7-1 13-2.5t10.5-5 7-8 2.5-9.5v-238h16q15 0 26-11t11-26.5-11-26.5-26-11z" />
<glyph unicode="&#xe629;" glyph-name="solid-help" d="M512.5 831.209q-91 0-174-35.5t-143.5-95.5-96-143-35.5-174.5 35.5-174.5 96-143 143.5-95.5 174-35.5 174 35.5 143 95.5 95.5 143 35.5 174.5-35.5 174.5-95.5 143-143 95.5-174 35.5zM510.5 159.209q-19 0-32.5 14t-13.5 33.5 13.5 33.5 32.5 14q5 0 9.5-1t8.5-3 8-4.5 7-5.5 5.5-7 4-8 2.5-9 1-10q0-19-13.5-33t-32.5-14zM639.5 458.209q-9-19-23-32-6-7-18-18t-29-27q-9-9-15-16l-8-12q-3-6-4.5-11.5t-4.5-19.5q-6-30-33-30-8 0-14 2.5t-11 7.5q-9 10-9 29 0 24 7 42t19 31q6 7 14 14.5t18 17.5q6 5 11 9.5t8 8.5l7 6q8 8 13 18t5 22-4 21.5-12 17.5q-6 5-12.5 8.5t-14 5.5-16.5 2q-30 0-45-16-4-6-8.5-13t-8.5-15.5-7-18.5q-9-33-36-33-15 0-26 12-5 5-8 11.5t-3 12.5q0 28 17 56t49.5 46 75.5 18q41 0 71.5-15t47.5-41.5 17-57.5q0-13-2.5-23.5t-7.5-19.5z" />
<glyph unicode="&#xe63a;" glyph-name="shape-tag" d="M158 780.002q0 18 10.5 33t29.5 24 42 9h544q23 0 42-9t29.5-24.5 10.5-32.5v-858q-327 220-354 220t-354-220v858z" />
<glyph unicode="&#xe642;" glyph-name="qzone" d="M777.888 211.502q-63.725 4.395-180.738 13.734t-143.382 11.536q3.296 1.099 9.339 4.395t8.24 4.395q49.442 35.159 148.876 106.575t148.876 106.575h-17.579q-82.403 34.060-270.833 30.215t-263.142-37.906q64.824-4.395 192.824-13.185t192.824-13.185q-2.197-2.197-4.944-8.24t-3.845-8.24q-60.429-39.554-170.3-110.97t-145.030-94.489v-8.79q68.12-8.79 141.734-10.987t157.116 3.296 136.24 10.438 141.734 14.833v-8.79h-17.579q-7.691-6.592-18.678-13.185t-13.185-9.888-5.494-13.734-5.494-31.313q5.494-28.567 13.734-68.12t15.931-77.459 13.185-67.571q-1.099-2.197-7.691-8.79h-35.159q-40.652 34.060-86.249 64.275t-107.124 57.682-113.167 31.863q-69.219-39.554-271.382-153.82-6.592 3.296-18.129 8.79t-17.030 7.691q12.086 65.923 34.609 187.33t26.918 146.678q-40.652 36.258-122.506 110.421t-122.506 111.519q1.099 1.099 1.648 3.845t1.648 4.395 1.648 4.395 1.648 3.845v1.099t1.099 2.197v2.197l1.099 3.296q38.455 5.494 77.459 10.438t87.897 11.536 73.614 9.888 85.15 10.987q18.678 34.060 54.386 96.687t64.824 113.717 55.485 97.236h17.579q76.91-164.807 148.326-316.429 23.073-2.197 48.343-4.944t49.442-4.944l48.343-4.395q24.172-2.197 48.893-4.944t48.343-4.944 49.442-4.944 48.893-4.944q1.099-3.296 3.845-8.79t4.944-8.79q-30.764-29.665-114.815-111.519t-130.197-126.901v-42.85z" />
<glyph unicode="&#xe645;" glyph-name="check" d="M923.436 616.877q-6.563 6.563-15.867 8.751t-18.055-0.545-15.322-10.394l-467.24-496.785-254.956 251.678q-10.941 9.849-25.17 9.849t-24.618-10.394-10.394-25.17 10.941-24.618l280.127-276.841h1.096q1.096-1.096 7.661-4.375l3.286-3.286q3.286-1.096 6.563-1.643t6.563-0.545q6.563 0 13.133 3.286 1.096 0 2.188 1.096t2.188 1.096q5.473 3.286 7.661 5.473v0l491.314 524.144q9.849 9.849 9.849 24.618t-10.941 24.618z" />
<glyph unicode="&#xe646;" glyph-name="close" d="M558.119 381.684l272.638 270.588q9.224 9.224 9.224 22.547t-9.224 23.572q-6.149 6.149-14.863 8.713t-16.913 0-15.373-8.713l-271.613-270.588-269.563 270.588q-9.224 9.224-23.064 9.224t-23.572-9.224-9.738-23.064 10.249-23.064l269.563-270.588-271.613-270.588q-10.249-9.224-10.249-23.064t9.738-23.064 23.064-9.224q6.149 0 12.298 2.050t11.274 7.174l271.613 270.588 271.613-273.663q10.249-9.224 23.572-9.224 6.149 0 12.298 2.563t11.274 6.663q9.224 10.249 9.224 23.572t-9.224 23.572z" />
<glyph unicode="&#xe664;" glyph-name="solid-warning" d="M943.083 126.209l-341 609q-35 63-90.5 63t-90.5-63l-340-609q-34-62-6-111 29-48 100-48h674q71 0 99.5 48.5t-5.5 110.5zM480.083 575.209q0 13 9.5 22.5t22.5 9.5 22.5-9.5 9.5-22.5v-288q0-13-9.5-22.5t-22.5-9.5-22.5 9.5-9.5 22.5v288zM512.083 63.209q-13 0-24 6.5t-17.5 17.5-6.5 24q0 20 14 34t34 14 34-14 14-34-14-34-34-14z" />
<glyph unicode="&#xe666;" glyph-name="add-img" horiz-adv-x="1195" d="M456.5 393h35q0 30 20.5 51t49.5 21v36q-44 0-74.5-32t-30.5-76zM561.5 644q-102 0-174-73.5t-72-177.5q0-69 33-127t89.5-91.5 123.5-33.5q55 0 104 24 63 30 101.5 90t39.5 133v5q0 29-6.5 57.5t-18.5 53-29 46.5-38 39-45 29.5-52 19-56 6.5zM665.5 248q-22-17-48.5-26t-55.5-9q-73 0-124 52.5t-51 127 51 127 123.5 52.5 124-52.5 51.5-126.5v-5q-1-21-6-41.5t-14.5-38-22-33-28.5-27.5zM1122.5 569v75q0 30-14.5 54.5t-38.5 39-53 14.5h-175v36q0 45-30.5 76.5t-74.5 31.5h-350q-44 0-75-31.5t-31-76.5v-36h-175q-43 0-74-31.5t-31-76.5v-575q0-29 14-54t38.5-39.5 52.5-14.5h560q20 1 34 15t14 34q0 10-3.5 19t-10 15.5-15.5 10.5-19 4v1h-518q-20 0-34.5 14.5t-14.5 35.5v503q0 21 14.5 36t34.5 15h215v84q0 13 7 24.5t18 18.5 25 7h298q20 0 34.5-15t14.5-35v-84h215q21 0 35.5-15t14.5-36v-225q1-19 15.5-32.5t33.5-13.5q20 0 34.5 14.5t14.5 34.5v178zM1015.5 283v-365q0-19-14-32.5t-33-13.5h-5q-19 0-33 13.5t-14 32.5v365q0 19 14 32.5t33 13.5h5q13 0 23.5-6t17-17 6.5-23zM783.5 150h365q19 0 32.5-14t13.5-33v-5q0-19-13.5-32.5t-32.5-13.5h-365q-19 0-32.5 13.5t-13.5 32.5v5q0 19 13.5 33t32.5 14z" />
<glyph unicode="&#xe67e;" glyph-name="trash-o" d="M853.394 553.406q-18.67 0-30.672-12.002t-12.002-30.672v-504.090q0-41.341-38.674-49.342-6.668-1.334-12.002-1.334h-496.088q-24.004 0-37.34 15.336t-13.336 35.34v504.090q0 18.67-12.002 30.672t-30.672 12.002-30.672-12.002-12.002-30.672v-504.090q0-57.344 39.34-96.684t96.684-39.34h486.753q57.344 0 97.351 39.34t40.007 96.684v504.090q5.334 18.67-4.667 30.672t-30.005 12.002zM443.988 83.989v426.743q0 18.67-10.669 30.672t-24.004 12.002q-9.335 0-20.67-5.334t-20.67-15.336-9.335-22.004v-426.743q0-13.336 5.334-22.671t14.669-14.669 22.671-5.334q18.67 0 30.672 12.002t12.002 30.672zM665.361 83.989v426.743q0 18.67-15.336 30.672t-35.34 12.002q-34.673 0-34.673-42.674v-426.743q0-18.67 10.669-30.672t24.004-12.002q9.335 0 20.67 5.334t20.67 15.336 9.335 22.004zM938.743 724.103h-213.371v60.011q0 44.008-33.339 77.347t-77.347 33.339h-205.37q-44.008 0-77.347-33.339t-33.339-77.347v-60.011h-213.371q-18.67 0-30.672-12.002t-12.002-30.672 12.002-30.672 30.672-12.002h853.485q18.67 0 30.672 12.002t12.002 30.672-12.002 30.672-30.672 12.002zM383.977 784.114q0 25.338 25.338 25.338h205.37q25.338 0 25.338-25.338v-60.011h-256.046v60.011z" />
<glyph unicode="&#xe69b;" glyph-name="pengyou" d="M388.817 582.837l-367.387-342.534q-22.692 110.216-18.91 182.613t41.601 159.921h344.695zM284.004 438.044l-17.289-502.455q-98.33 66.994-144.794 118.32t-82.122 139.931zM313.179 260.834l342.534-367.387q-110.216-22.692-182.613-18.91t-159.921 40.521v345.776zM457.973 156.020l502.455-17.289q-66.994-98.33-118.32-144.794t-139.931-82.122zM635.183 185.195l367.387 342.534q22.692-110.216 18.91-182.613t-40.521-159.921h-345.776zM739.996 329.989l17.289 502.455q98.33-66.994 144.794-118.32t82.122-139.931zM710.821 507.199l-342.534 367.387q110.216 22.692 182.613 18.91t159.921-41.601v-344.695zM566.027 612.012l-502.455 17.289q66.994 98.33 118.32 144.794t139.931 82.122z" />
<glyph unicode="&#xe6a8;" glyph-name="taobao" d="M100.683 556.383q19.45-13.73 48.054-34.324 9.153-6.865 17.162-12.585t16.018-12.585q13.73-10.297 27.459-22.883 12.585-12.585 33.18-34.324 30.892-29.747 30.892-72.080-1.144-21.739-5.721-46.337t-14.874-53.202q-2.288-9.153-5.149-16.59t-5.149-13.158q0-2.288-1.144-5.721l-2.288-4.577-2.288-6.865-2.288-4.577q-5.721-10.297-11.441-24.027l-17.162-34.324q-10.297-22.883-26.315-54.918t-38.901-83.522l-140.728 83.522q42.333 38.901 81.234 76.657l26.315 26.315q3.432 3.432 5.721 6.865 17.162 17.162 30.892 33.18 14.874 14.874 26.315 30.892 2.288 3.432 5.149 6.865t5.149 6.865 4.004 6.865 2.86 6.865q12.585 24.027 8.581 43.477t-14.302 32.036q-11.441 14.874-32.036 26.315l-106.404 64.072zM1006.837 579.266q9.153-48.054 13.73-109.837 3.432-52.63 3.432-128.143 0-24.027-1.716-50.914t-4.004-56.063-5.721-60.067q-4.577-48.054-22.883-78.945t-44.621-50.914-58.351-29.175-65.216-12.585q-75.513-5.721-170.476 16.018l19.45 70.936 75.513-16.018q26.315-2.288 46.909 1.144 10.297 2.288 19.45 5.149t17.162 7.437q16.018 8.009 27.459 17.734t18.306 21.166q18.306 25.171 24.027 58.351v351.249q0 50.342-27.459 78.373t-78.945 34.896q-25.171 3.432-55.491 2.288t-65.788-8.009q-70.936-11.441-157.89-41.189l52.63-16.018q-1.144-2.288-2.288-5.149t-2.86-5.721-4.004-6.293l-5.721-4.577q-12.585-10.297-29.747-30.892h316.925v-58.351h-179.629v-115.558h179.629v-60.639h-36.612l62.927-154.458-99.54-41.189-19.45 65.216q-8.009-5.721-19.45-13.158t-25.171-16.59q-9.153-6.865-19.45-12.585t-21.739-11.441-25.171-10.297q-38.901-16.018-88.67-27.459t-110.409-9.153q-11.441 0-21.739 0.572t-18.878 2.288-16.59 5.149q-22.883 9.153-38.901 24.027-8.009 6.865-13.73 15.446t-10.297 18.878q-8.009 18.306-12.585 40.045-9.153 46.909 0 108.693l13.73 3.432h105.26q-1.144-9.153-3.432-21.739-2.288-13.73-4.577-25.171 0-6.865-0.572-12.585t0.572-11.441q0-11.441 5.721-20.594 2.288-3.432 6.865-6.293t12.585-4.004q14.874-3.432 33.18-3.432 8.009-1.144 16.018-1.144h49.198v118.99h-205.944v60.639h205.944v115.558h-70.936q-17.162-16.018-30.892-32.036-3.432-4.577-6.293-8.581t-5.721-7.437-5.721-7.437-6.293-6.293q-5.721-8.009-11.441-15.446t-11.441-15.446l-53.774 46.909q6.865 6.865 14.302 15.446t14.302 17.734q13.73 18.306 26.315 37.756l25.171 38.901q12.585 18.306 20.594 34.324-14.874-5.721-29.747-12.585-6.865-3.432-14.874-6.293t-16.018-6.293q-14.874-19.45-32.036-37.756t-35.468-36.612q0-2.288-14.302 5.149t-31.464 16.59q-20.594 10.297-45.765 24.027 35.468 29.747 61.783 72.080 27.459 42.333 46.909 82.378 21.739 45.765 38.901 94.963l128.143-34.324q-1.144-4.577-3.432-10.297t-4.577-10.297q-1.144-2.288-2.86-5.149t-2.86-5.149-2.288-5.721-3.432-5.721q-2.288-6.865-5.721-13.158t-6.865-13.158q96.107 26.315 170.476 36.612 36.612 5.721 69.22 8.009t61.211 1.144q56.063-1.144 96.107-11.441t67.504-25.171q64.072-34.324 82.378-96.107v0zM659.020 191.405q9.153 3.432 18.878 7.437t18.878 8.581q18.306 8.009 33.18 20.594l-14.874 54.918 49.198 16.018h-105.26v-107.549zM178.484 590.707q-6.865 0-13.158 0.572t-12.013 1.716-11.441 3.432q-17.162 5.721-29.747 17.162l-8.009 8.009q-3.432 3.432-6.293 7.437t-5.149 9.725q-6.865 13.73-6.865 30.892 0 8.009 1.716 16.018t5.149 14.874q6.865 14.874 19.45 25.171 6.865 5.721 14.302 9.725t15.446 7.437q17.162 5.721 36.612 5.721 5.721 0 11.441-0.572t11.441-1.716 11.441-3.432q16.018-5.721 28.603-17.162 4.577-3.432 8.009-7.437t6.293-8.581 6.293-9.153q6.865-14.874 6.865-31.464t-7.437-30.892-20.022-24.599q-2.288-3.432-5.721-5.721t-7.437-4.004-7.437-4.004-8.009-3.432q-5.721-2.288-11.441-3.432t-11.441-1.716-11.441-0.572v0z" />
<glyph unicode="&#xe6b9;" glyph-name="alipay" horiz-adv-x="1037" d="M670.833 280.5q31 56 55 118.5t32 96.5l9 34h-237v90h281v38h-281v135h-128v-135h-256v-38h256v-90h-218v-38h442q-2-8-7-13 0-21-10-52t-19.5-51.5-27.5-56.5q-48 19-91.5 32.5t-78 22-66.5 12.5-55 5.5-46-0.5-36.5-4.5-28.5-7.5-21-8-15.5-8-9.5-6q-134-94-88-219 23-65 76-105 21-16 31-15 286-63 480 167 4-5 8.5-6t10.5-1q31-17 133.5-66.5t189.5-90.5l87-41v192q-9 0-21.5 2t-31.5 6.5-36 9-43.5 13-45 14-49.5 16.5l-48 16q-17 5-50.5 16t-45.5 16zM503.833 222.5q-33-42-70-72t-70-45.5-68-23-61.5-7.5-52.5 4-39 8-23 8q-22 6-39 24.5t-23.5 43.5-5 51 17.5 49.5 44 36.5q46 15 94 18.5t87-1.5 82-18 73.5-26 66.5-31z" />
<glyph unicode="&#xe6d8;" glyph-name="solid-plus" d="M829 697.709q-64 64-145.5 97.5t-171.5 33.5-171.5-33.5-145.5-97.5q-42-42-71.5-92.5t-44.5-107-15-115.5q0-89 34-170.5t97.5-145 145-97 171.5-33.5 171.5 33.5 145 97 97.5 145 34 170.5q0 59-15 115.5t-44.5 107-71.5 92.5zM736 350.709h-192v-192q0-13-9.5-22.5t-22.5-9.5-22.5 9.5-9.5 22.5v192h-192q-13 0-22.5 9.5t-9.5 22.5 9.5 22.5 22.5 9.5h192v192q0 13 9.5 22.5t22.5 9.5 22.5-9.5 9.5-22.5v-192h192q13 0 22.5-9.5t9.5-22.5-9.5-22.5-22.5-9.5z" />
<glyph unicode="&#xe6f6;" glyph-name="round-tag" horiz-adv-x="1158" d="M1135 926.736h-1135v-1002q103-22 200-22 130 0 254.5 34.5t229.5 96 193 150 150 193.5 96.5 229 34.5 254q0 12-0.5 20.5t-1 15.5-1 11.5-2.5 7.5-2.5 5-3 3.5-3.5 1.5-4.5 1-4.5 1zM469 64.736h-31l-293 408 306-177 585 485z" />
<glyph unicode="&#xe898;" glyph-name="default-img" d="M770.286 664.017l-169.143-220.571-83.429 89.143-258.286-296-88 81.143-171.429-125.714v-128h1024v211.429zM211.429 451.446q52.571 0 89.143 37.143t36.571 89.714q0 34.286-16.571 62.857t-45.714 45.714-63.429 17.143q-51.429 0-88.571-37.143t-37.143-88.571q0-67.429 56-105.143 32-20.571 69.714-21.714z" />
<glyph unicode="&#xe900;" glyph-name="solid-minus" d="M511.999 830.362c-247.233 0-447.653-200.421-447.653-447.653s200.421-447.653 447.653-447.653c247.232 0 447.653 200.422 447.653 447.653s-200.421 447.653-447.653 447.653zM763.954 344.232h-503.91v76.954h503.91v-76.954z" />
<glyph unicode="&#xe901;" glyph-name="arrow-up-line" d="M575.418 602.661c-16.931 17.361-40.892 28.696-67.866 28.696s-50.935-11.335-67.578-28.839l-274.33-288.247c-14.348-15.495-23.386-35.582-23.386-57.821 0-47.778 40.892-86.517 91.395-86.517 26.974 0 50.935 11.335 67.578 28.839l115.070 120.665v-362.138c0-47.778 40.892-86.517 91.395-86.517 50.36 0 91.395 38.739 91.395 86.517v361.995l114.783-120.952c16.931-17.361 40.892-28.696 67.866-28.696 50.36 0 91.395 38.739 91.395 86.517 0 22.239-9.183 42.326-23.674 57.678l-274.043 288.821zM904.555 894.781h-791.711c-50.36 0-91.395-38.739-91.395-86.517s40.892-86.517 91.395-86.517h791.568c50.36 0 91.395 38.739 91.395 86.517s-40.892 86.517-91.252 86.517v0z" />
<glyph unicode="&#xe902;" glyph-name="arrow-down-line" d="M575.409 162.789l273.717 288.637c14.633 15.35 23.67 35.434 23.67 57.67 0 47.772-40.886 86.505-91.382 86.505-26.97 0-50.927-11.333-67.856-28.692l-114.766-120.935v362.23c0 47.772-40.886 86.505-91.239 86.505s-91.382-38.733-91.382-86.505v-362.086l-115.053 120.648c-16.641 17.646-40.599 28.835-67.569 28.835-50.353 0-91.382-38.733-91.382-86.505 0-22.236 9.181-42.32 23.383-57.813l274.291-288.206c16.641-17.502 40.599-28.835 67.569-28.835s51.070 11.19 67.999 28.549v0zM904.499-129.291c50.353 0 91.382 38.733 91.382 86.505s-40.886 86.505-91.382 86.505h-791.598c-50.353 0-91.382-38.733-91.382-86.505s40.886-86.505 91.382-86.505h791.598z" />
<glyph unicode="&#xe903;" glyph-name="img-upload" d="M227.226 591.053c0 0 0 0 0 0 0-63.34 51.348-114.688 114.688-114.688s114.688 51.348 114.688 114.688c0 0 0 0 0 0 0 63.34-51.348 114.688-114.688 114.688s-114.688-51.348-114.688-114.688zM747.52 404.48c-141.414 0-256-114.586-256-256s114.586-256 256-256c141.414 0 256 114.586 256 256s-114.688 256-256 256zM892.723 114.483c-9.728-9.728-25.702-9.728-35.43 0l-84.685 84.685v-161.997c0-13.824-11.264-25.088-25.088-25.088s-25.088 11.264-25.088 25.088v161.997l-84.685-84.685c-9.728-9.728-25.702-9.728-35.43 0v0c-9.728 9.728-9.728 25.702 0 35.43l127.488 127.488c4.915 4.915 11.366 7.373 17.818 7.27 6.451 0 12.902-2.458 17.818-7.27l127.488-127.488c9.626-9.626 9.626-25.6-0.205-35.43zM477.491-18.534c-30.106 48.538-53.35 105.984-47.514 167.014 9.011 93.286-11.674 105.882-11.674 105.882l-99.021 99.021c-23.859 23.859-55.398 35.84-86.938 35.84s-62.976-11.981-86.938-35.84l-63.693-60.314v459.571c0 16.282 6.451 31.642 18.125 43.315s27.034 18.125 43.315 18.125h696.32c16.282 0 31.642-6.451 43.315-18.125s18.125-27.034 18.125-43.315v-318.771c0-16.896 13.824-30.72 30.72-30.72v0c16.896 0 30.72 13.824 30.72 30.72v318.771c0 67.584-55.296 122.88-122.88 122.88h-696.32c-67.584 0-122.88-55.296-122.88-122.88v-696.32c0-67.584 55.296-122.88 122.88-122.88h247.706c0 0 0 0 0 0h61.133c0 0 0 0 0 0h2.458c0 0 0 0.102 0 0.102 15.77 1.229 28.262 14.541 28.262 30.618v0c0.205 6.349-1.843 12.39-5.222 17.306 0 0 0 0 0 0z" />
<glyph unicode="&#xe904;" glyph-name="toggle-lg-on" horiz-adv-x="2524" d="M2028.552 773.358h-1494.722c-218.295 0-396.899-178.605-396.899-396.899s178.605-396.899 396.899-396.899h1494.524c218.295 0 396.899 178.605 396.899 396.899 0.198 218.493-178.605 396.899-396.701 396.899v0zM2028.552 68.862c-168.682 0-307.597 138.915-307.597 307.597s138.716 307.795 307.597 307.795c168.682 0 307.597-138.915 307.597-307.597s-139.113-307.795-307.597-307.795v0z" />
<glyph unicode="&#xe905;" glyph-name="toggle-lg-off" horiz-adv-x="2524" d="M2009.501 780.899h-1494.722c-219.287 0-396.899-177.612-396.899-396.899s177.612-396.899 396.899-396.899h1494.524c219.287 0 396.899 177.612 396.899 396.899 0.198 219.287-177.612 396.899-396.701 396.899v0zM2009.501 53.184h-1494.722c-182.574 0-330.816 148.043-330.816 330.816 0 182.574 148.043 330.816 330.816 330.816h1494.524c182.574 0 330.816-148.043 330.816-330.816 0-182.574-148.043-330.816-330.617-330.816v0zM278.226 384c0-31.752 6.35-63.504 18.456-92.874s30.164-56.161 52.589-78.784c22.425-22.425 49.414-40.484 78.784-52.589s61.122-18.456 92.874-18.456c31.752 0 63.504 6.35 92.874 18.456s56.161 30.164 78.784 52.589c22.425 22.425 40.484 49.414 52.589 78.784s18.456 61.122 18.456 92.874c0 31.752-6.35 63.504-18.456 92.874s-30.164 56.161-52.589 78.784c-22.425 22.425-49.414 40.484-78.784 52.589s-61.122 18.456-92.874 18.456c-31.752 0-63.504-6.35-92.874-18.456s-56.161-30.164-78.784-52.589c-22.425-22.425-40.484-49.414-52.589-78.784s-18.456-61.122-18.456-92.874v0z" />
<glyph unicode="&#xe906;" glyph-name="lock" d="M142.524-79.993h738.97c26.798 0 48.801 21.562 48.801 48.149v461.634c0 26.576-21.788 47.926-48.801 47.926h-47.062v67.312c0 90.411-35.287 190.839-92.812 251.411-57.298 60.563-139.425 99.561-229.399 99.561-0.215 0-0.215 0-0.215 0h-0.215c-89.974 0-172.112-38.998-229.399-99.339-57.513-60.563-92.812-160.998-92.812-251.411v-67.536h-47.062c-27.013 0-48.801-21.562-48.801-47.926v-461.634c0-26.576 21.788-48.149 48.801-48.149zM305.046 545.042c0 59.476 21.562 133.111 61.214 174.937v0 0.651c38.339 40.523 91.287 64.264 145.525 64.264h0.437c54.247 0 107.186-23.748 145.525-64.264v-0.437l-0.212-0.212c39.862-41.825 61.212-115.461 61.212-174.937v-67.312h-413.708v67.312z" />
<glyph unicode="&#xf001;" glyph-name="music" d="M877.714 768v-640q0-28.571-19.429-50.857t-49.143-34.571-59.143-18.286-55.143-6-55.143 6-59.143 18.286-49.143 34.571-19.429 50.857 19.429 50.857 49.143 34.571 59.143 18.286 55.143 6q60 0 109.714-22.286v306.857l-438.857-135.429v-405.143q0-28.571-19.429-50.857t-49.143-34.571-59.143-18.286-55.143-6-55.143 6-59.143 18.286-49.143 34.571-19.429 50.857 19.429 50.857 49.143 34.571 59.143 18.286 55.143 6q60 0 109.714-22.286v552.571q0 17.714 10.857 32.286t28 20.286l475.429 146.286q6.857 2.286 16 2.286 22.857 0 38.857-16t16-38.857z" />
<glyph unicode="&#xf002;" glyph-name="search" horiz-adv-x="951" d="M658.286 420.571q0 105.714-75.143 180.857t-180.857 75.143-180.857-75.143-75.143-180.857 75.143-180.857 180.857-75.143 180.857 75.143 75.143 180.857zM950.857-54.857q0-29.714-21.714-51.429t-51.429-21.714q-30.857 0-51.429 21.714l-196 195.429q-102.286-70.857-228-70.857-81.714 0-156.286 31.714t-128.571 85.714-85.714 128.571-31.714 156.286 31.714 156.286 85.714 128.571 128.571 85.714 156.286 31.714 156.286-31.714 128.571-85.714 85.714-128.571 31.714-156.286q0-125.714-70.857-228l196-196q21.143-21.143 21.143-51.429z" />
<glyph unicode="&#xf003;" glyph-name="envelope-o" d="M950.857 36.571v438.857q-18.286-20.571-39.429-37.714-153.143-117.714-243.429-193.143-29.143-24.571-47.429-38.286t-49.429-27.714-58.571-14h-1.143q-27.429 0-58.571 14t-49.429 27.714-47.429 38.286q-90.286 75.429-243.429 193.143-21.143 17.143-39.429 37.714v-438.857q0-7.429 5.429-12.857t12.857-5.429h841.143q7.429 0 12.857 5.429t5.429 12.857zM950.857 637.143v14t-0.286 7.429-1.714 7.143-3.143 5.143-5.143 4.286-8 1.429h-841.143q-7.429 0-12.857-5.429t-5.429-12.857q0-96 84-162.286 110.286-86.857 229.143-181.143 3.429-2.857 20-16.857t26.286-21.429 25.429-18 28.857-15.714 24.571-5.143h1.143q11.429 0 24.571 5.143t28.857 15.714 25.429 18 26.286 21.429 20 16.857q118.857 94.286 229.143 181.143 30.857 24.571 57.429 66t26.571 75.143zM1024 658.286v-621.714q0-37.714-26.857-64.571t-64.571-26.857h-841.143q-37.714 0-64.571 26.857t-26.857 64.571v621.714q0 37.714 26.857 64.571t64.571 26.857h841.143q37.714 0 64.571-26.857t26.857-64.571z" />
<glyph unicode="&#xf004;" glyph-name="heart" d="M512-54.857q-14.857 0-25.143 10.286l-356.571 344q-5.714 4.571-15.714 14.857t-31.714 37.429-38.857 55.714-30.571 69.143-13.429 78.857q0 125.714 72.571 196.571t200.571 70.857q35.429 0 72.286-12.286t68.571-33.143 54.571-39.143 43.429-38.857q20.571 20.571 43.429 38.857t54.571 39.143 68.571 33.143 72.286 12.286q128 0 200.571-70.857t72.571-196.571q0-126.286-130.857-257.143l-356-342.857q-10.286-10.286-25.143-10.286z" />
<glyph unicode="&#xf005;" glyph-name="star" horiz-adv-x="951" d="M950.857 526.286q0-12.571-14.857-27.429l-207.429-202.286 49.143-285.714q0.571-4 0.571-11.429 0-12-6-20.286t-17.429-8.286q-10.857 0-22.857 6.857l-256.571 134.857-256.571-134.857q-12.571-6.857-22.857-6.857-12 0-18 8.286t-6 20.286q0 3.429 1.143 11.429l49.143 285.714-208 202.286q-14.286 15.429-14.286 27.429 0 21.143 32 26.286l286.857 41.714 128.571 260q10.857 23.429 28 23.429t28-23.429l128.571-260 286.857-41.714q32-5.143 32-26.286z" />
<glyph unicode="&#xf006;" glyph-name="star-o" horiz-adv-x="951" d="M649.714 322.286l174.857 169.714-241.143 35.429-108 218.286-108-218.286-241.143-35.429 174.857-169.714-41.714-240.571 216 113.714 215.429-113.714zM950.857 526.286q0-12.571-14.857-27.429l-207.429-202.286 49.143-285.714q0.571-4 0.571-11.429 0-28.571-23.429-28.571-10.857 0-22.857 6.857l-256.571 134.857-256.571-134.857q-12.571-6.857-22.857-6.857-12 0-18 8.286t-6 20.286q0 3.429 1.143 11.429l49.143 285.714-208 202.286q-14.286 15.429-14.286 27.429 0 21.143 32 26.286l286.857 41.714 128.571 260q10.857 23.429 28 23.429t28-23.429l128.571-260 286.857-41.714q32-5.143 32-26.286z" />
<glyph unicode="&#xf007;" glyph-name="user" horiz-adv-x="805" d="M804.571 93.143q0-68.571-41.714-108.286t-110.857-39.714h-499.429q-69.143 0-110.857 39.714t-41.714 108.286q0 30.286 2 59.143t8 62.286 15.143 62 24.571 55.714 35.429 46.286 48.857 30.571 63.714 11.429q5.143 0 24-12.286t42.571-27.429 61.714-27.429 76.286-12.286 76.286 12.286 61.714 27.429 42.571 27.429 24 12.286q34.857 0 63.714-11.429t48.857-30.571 35.429-46.286 24.571-55.714 15.143-62 8-62.286 2-59.143zM621.714 603.429q0-90.857-64.286-155.143t-155.143-64.286-155.143 64.286-64.286 155.143 64.286 155.143 155.143 64.286 155.143-64.286 64.286-155.143z" />
<glyph unicode="&#xf008;" glyph-name="film" horiz-adv-x="1097" d="M219.429-18.286v73.143q0 14.857-10.857 25.714t-25.714 10.857h-73.143q-14.857 0-25.714-10.857t-10.857-25.714v-73.143q0-14.857 10.857-25.714t25.714-10.857h73.143q14.857 0 25.714 10.857t10.857 25.714zM219.429 201.143v73.143q0 14.857-10.857 25.714t-25.714 10.857h-73.143q-14.857 0-25.714-10.857t-10.857-25.714v-73.143q0-14.857 10.857-25.714t25.714-10.857h73.143q14.857 0 25.714 10.857t10.857 25.714zM219.429 420.571v73.143q0 14.857-10.857 25.714t-25.714 10.857h-73.143q-14.857 0-25.714-10.857t-10.857-25.714v-73.143q0-14.857 10.857-25.714t25.714-10.857h73.143q14.857 0 25.714 10.857t10.857 25.714zM804.571-18.286v292.571q0 14.857-10.857 25.714t-25.714 10.857h-438.857q-14.857 0-25.714-10.857t-10.857-25.714v-292.571q0-14.857 10.857-25.714t25.714-10.857h438.857q14.857 0 25.714 10.857t10.857 25.714zM219.429 640v73.143q0 14.857-10.857 25.714t-25.714 10.857h-73.143q-14.857 0-25.714-10.857t-10.857-25.714v-73.143q0-14.857 10.857-25.714t25.714-10.857h73.143q14.857 0 25.714 10.857t10.857 25.714zM1024-18.286v73.143q0 14.857-10.857 25.714t-25.714 10.857h-73.143q-14.857 0-25.714-10.857t-10.857-25.714v-73.143q0-14.857 10.857-25.714t25.714-10.857h73.143q14.857 0 25.714 10.857t10.857 25.714zM804.571 420.571v292.571q0 14.857-10.857 25.714t-25.714 10.857h-438.857q-14.857 0-25.714-10.857t-10.857-25.714v-292.571q0-14.857 10.857-25.714t25.714-10.857h438.857q14.857 0 25.714 10.857t10.857 25.714zM1024 201.143v73.143q0 14.857-10.857 25.714t-25.714 10.857h-73.143q-14.857 0-25.714-10.857t-10.857-25.714v-73.143q0-14.857 10.857-25.714t25.714-10.857h73.143q14.857 0 25.714 10.857t10.857 25.714zM1024 420.571v73.143q0 14.857-10.857 25.714t-25.714 10.857h-73.143q-14.857 0-25.714-10.857t-10.857-25.714v-73.143q0-14.857 10.857-25.714t25.714-10.857h73.143q14.857 0 25.714 10.857t10.857 25.714zM1024 640v73.143q0 14.857-10.857 25.714t-25.714 10.857h-73.143q-14.857 0-25.714-10.857t-10.857-25.714v-73.143q0-14.857 10.857-25.714t25.714-10.857h73.143q14.857 0 25.714 10.857t10.857 25.714zM1097.143 731.429v-768q0-37.714-26.857-64.571t-64.571-26.857h-914.286q-37.714 0-64.571 26.857t-26.857 64.571v768q0 37.714 26.857 64.571t64.571 26.857h914.286q37.714 0 64.571-26.857t26.857-64.571z" />
<glyph unicode="&#xf00c;" glyph-name="check-b" d="M954.857 572.571q0-22.857-16-38.857l-491.429-491.429q-16-16-38.857-16t-38.857 16l-284.571 284.571q-16 16-16 38.857t16 38.857l77.714 77.714q16 16 38.857 16t38.857-16l168-168.571 374.857 375.429q16 16 38.857 16t38.857-16l77.714-77.714q16-16 16-38.857z" />
<glyph unicode="&#xf00d;" glyph-name="close-b" horiz-adv-x="805" d="M741.714 140.571q0-22.857-16-38.857l-77.714-77.714q-16-16-38.857-16t-38.857 16l-168 168-168-168q-16-16-38.857-16t-38.857 16l-77.714 77.714q-16 16-16 38.857t16 38.857l168 168-168 168q-16 16-16 38.857t16 38.857l77.714 77.714q16 16 38.857 16t38.857-16l168-168 168 168q16 16 38.857 16t38.857-16l77.714-77.714q16-16 16-38.857t-16-38.857l-168-168 168-168q16-16 16-38.857z" />
<glyph unicode="&#xf00e;" glyph-name="search-plus" horiz-adv-x="951" d="M585.143 438.857v-36.571q0-7.429-5.429-12.857t-12.857-5.429h-128v-128q0-7.429-5.429-12.857t-12.857-5.429h-36.571q-7.429 0-12.857 5.429t-5.429 12.857v128h-128q-7.429 0-12.857 5.429t-5.429 12.857v36.571q0 7.429 5.429 12.857t12.857 5.429h128v128q0 7.429 5.429 12.857t12.857 5.429h36.571q7.429 0 12.857-5.429t5.429-12.857v-128h128q7.429 0 12.857-5.429t5.429-12.857zM658.286 420.571q0 105.714-75.143 180.857t-180.857 75.143-180.857-75.143-75.143-180.857 75.143-180.857 180.857-75.143 180.857 75.143 75.143 180.857zM950.857-54.857q0-30.286-21.429-51.714t-51.714-21.429q-30.857 0-51.429 21.714l-196 195.429q-102.286-70.857-228-70.857-81.714 0-156.286 31.714t-128.571 85.714-85.714 128.571-31.714 156.286 31.714 156.286 85.714 128.571 128.571 85.714 156.286 31.714 156.286-31.714 128.571-85.714 85.714-128.571 31.714-156.286q0-125.714-70.857-228l196-196q21.143-21.143 21.143-51.429z" />
<glyph unicode="&#xf010;" glyph-name="search-minus" horiz-adv-x="951" d="M585.143 438.857v-36.571q0-7.429-5.429-12.857t-12.857-5.429h-329.143q-7.429 0-12.857 5.429t-5.429 12.857v36.571q0 7.429 5.429 12.857t12.857 5.429h329.143q7.429 0 12.857-5.429t5.429-12.857zM658.286 420.571q0 105.714-75.143 180.857t-180.857 75.143-180.857-75.143-75.143-180.857 75.143-180.857 180.857-75.143 180.857 75.143 75.143 180.857zM950.857-54.857q0-30.286-21.429-51.714t-51.714-21.429q-30.857 0-51.429 21.714l-196 195.429q-102.286-70.857-228-70.857-81.714 0-156.286 31.714t-128.571 85.714-85.714 128.571-31.714 156.286 31.714 156.286 85.714 128.571 128.571 85.714 156.286 31.714 156.286-31.714 128.571-85.714 85.714-128.571 31.714-156.286q0-125.714-70.857-228l196-196q21.143-21.143 21.143-51.429z" />
<glyph unicode="&#xf011;" glyph-name="power-off" d="M877.714 384q0-89.143-34.857-170.286t-93.714-140-140-93.714-170.286-34.857-170.286 34.857-140 93.714-93.714 140-34.857 170.286q0 104 46 196t129.429 154.286q24.571 18.286 54.571 14.286t47.714-28.571q18.286-24 14-54t-28.286-48.286q-56-42.286-86.571-103.429t-30.571-130.286q0-59.429 23.143-113.429t62.571-93.429 93.429-62.571 113.429-23.143 113.429 23.143 93.429 62.571 62.571 93.429 23.143 113.429q0 69.143-30.571 130.286t-86.571 103.429q-24 18.286-28.286 48.286t14 54q17.714 24.571 48 28.571t54.286-14.286q83.429-62.286 129.429-154.286t46-196zM512 822.857v-365.714q0-29.714-21.714-51.429t-51.429-21.714-51.429 21.714-21.714 51.429v365.714q0 29.714 21.714 51.429t51.429 21.714 51.429-21.714 21.714-51.429z" />
<glyph unicode="&#xf013;" glyph-name="gear" d="M585.143 384q0 60.571-42.857 103.429t-103.429 42.857-103.429-42.857-42.857-103.429 42.857-103.429 103.429-42.857 103.429 42.857 42.857 103.429zM877.714 446.286v-126.857q0-6.857-4.571-13.143t-11.429-7.429l-105.714-16q-10.857-30.857-22.286-52 20-28.571 61.143-78.857 5.714-6.857 5.714-14.286t-5.143-13.143q-15.429-21.143-56.571-61.714t-53.714-40.571q-6.857 0-14.857 5.143l-78.857 61.714q-25.143-13.143-52-21.714-9.143-77.714-16.571-106.286-4-16-20.571-16h-126.857q-8 0-14 4.857t-6.571 12.286l-16 105.143q-28 9.143-51.429 21.143l-80.571-61.143q-5.714-5.143-14.286-5.143-8 0-14.286 6.286-72 65.143-94.286 96-4 5.714-4 13.143 0 6.857 4.571 13.143 8.571 12 29.143 38t30.857 40.286q-15.429 28.571-23.429 56.571l-104.571 15.429q-7.429 1.143-12 7.143t-4.571 13.429v126.857q0 6.857 4.571 13.143t10.857 7.429l106.286 16q8 26.286 22.286 52.571-22.857 32.571-61.143 78.857-5.714 6.857-5.714 13.714 0 5.714 5.143 13.143 14.857 20.571 56.286 61.429t54 40.857q7.429 0 14.857-5.714l78.857-61.143q25.143 13.143 52 21.714 9.143 77.714 16.571 106.286 4 16 20.571 16h126.857q8 0 14-4.857t6.571-12.286l16-105.143q28-9.143 51.429-21.143l81.143 61.143q5.143 5.143 13.714 5.143 7.429 0 14.286-5.714 73.714-68 94.286-97.143 4-4.571 4-12.571 0-6.857-4.571-13.143-8.571-12-29.143-38t-30.857-40.286q14.857-28.571 23.429-56l104.571-16q7.429-1.143 12-7.143t4.571-13.429z" />
<glyph unicode="&#xf015;" glyph-name="home" horiz-adv-x="951" d="M804.571 329.143v-274.286q0-14.857-10.857-25.714t-25.714-10.857h-219.429v219.429h-146.286v-219.429h-219.429q-14.857 0-25.714 10.857t-10.857 25.714v274.286q0 0.571 0.286 1.714t0.286 1.714l328.571 270.857 328.571-270.857q0.571-1.143 0.571-3.429zM932 368.571l-35.429-42.286q-4.571-5.143-12-6.286h-1.714q-7.429 0-12 4l-395.429 329.714-395.429-329.714q-6.857-4.571-13.714-4-7.429 1.143-12 6.286l-35.429 42.286q-4.571 5.714-4 13.429t6.286 12.286l410.857 342.286q18.286 14.857 43.429 14.857t43.429-14.857l139.429-116.571v111.429q0 8 5.143 13.143t13.143 5.143h109.714q8 0 13.143-5.143t5.143-13.143v-233.143l125.143-104q5.714-4.571 6.286-12.286t-4-13.429z" />
<glyph unicode="&#xf016;" glyph-name="file-o" d="M838.857 678.857q16-16 27.429-43.429t11.429-50.286v-658.286q0-22.857-16-38.857t-38.857-16h-768q-22.857 0-38.857 16t-16 38.857v914.286q0 22.857 16 38.857t38.857 16h512q22.857 0 50.286-11.429t43.429-27.429zM585.143 818.286v-214.857h214.857q-5.714 16.571-12.571 23.429l-178.857 178.857q-6.857 6.857-23.429 12.571zM804.571-54.857v585.143h-237.714q-22.857 0-38.857 16t-16 38.857v237.714h-438.857v-877.714h731.429z" />
<glyph unicode="&#xf017;" glyph-name="clock-o" d="M512 585.143v-256q0-8-5.143-13.143t-13.143-5.143h-182.857q-8 0-13.143 5.143t-5.143 13.143v36.571q0 8 5.143 13.143t13.143 5.143h128v201.143q0 8 5.143 13.143t13.143 5.143h36.571q8 0 13.143-5.143t5.143-13.143zM749.714 384q0 84.571-41.714 156t-113.143 113.143-156 41.714-156-41.714-113.143-113.143-41.714-156 41.714-156 113.143-113.143 156-41.714 156 41.714 113.143 113.143 41.714 156zM877.714 384q0-119.429-58.857-220.286t-159.714-159.714-220.286-58.857-220.286 58.857-159.714 159.714-58.857 220.286 58.857 220.286 159.714 159.714 220.286 58.857 220.286-58.857 159.714-159.714 58.857-220.286z" />
<glyph unicode="&#xf019;" glyph-name="download" horiz-adv-x="951" d="M731.429 128q0 14.857-10.857 25.714t-25.714 10.857-25.714-10.857-10.857-25.714 10.857-25.714 25.714-10.857 25.714 10.857 10.857 25.714zM877.714 128q0 14.857-10.857 25.714t-25.714 10.857-25.714-10.857-10.857-25.714 10.857-25.714 25.714-10.857 25.714 10.857 10.857 25.714zM950.857 256v-182.857q0-22.857-16-38.857t-38.857-16h-841.143q-22.857 0-38.857 16t-16 38.857v182.857q0 22.857 16 38.857t38.857 16h265.714l77.143-77.714q33.143-32 77.714-32t77.714 32l77.714 77.714h265.143q22.857 0 38.857-16t16-38.857zM765.143 581.143q9.714-23.429-8-40l-256-256q-10.286-10.857-25.714-10.857t-25.714 10.857l-256 256q-17.714 16.571-8 40 9.714 22.286 33.714 22.286h146.286v256q0 14.857 10.857 25.714t25.714 10.857h146.286q14.857 0 25.714-10.857t10.857-25.714v-256h146.286q24 0 33.714-22.286z" />
<glyph unicode="&#xf01e;" glyph-name="repeat" d="M877.714 749.714v-256q0-14.857-10.857-25.714t-25.714-10.857h-256q-24 0-33.714 22.857-9.714 22.286 8 39.429l78.857 78.857q-84.571 78.286-199.429 78.286-59.429 0-113.429-23.143t-93.429-62.571-62.571-93.429-23.143-113.429 23.143-113.429 62.571-93.429 93.429-62.571 113.429-23.143q68 0 128.571 29.714t102.286 84q4 5.714 13.143 6.857 8 0 14.286-5.143l78.286-78.857q5.143-4.571 5.429-11.714t-4.286-12.857q-62.286-75.429-150.857-116.857t-186.857-41.429q-89.143 0-170.286 34.857t-140 93.714-93.714 140-34.857 170.286 34.857 170.286 93.714 140 140 93.714 170.286 34.857q84 0 162.571-31.714t139.714-89.429l74.286 73.714q16.571 17.714 40 8 22.286-9.714 22.286-33.714z" />
<glyph unicode="&#xf021;" glyph-name="refresh" d="M863.429 292.571q0-2.857-0.571-4-36.571-153.143-153.143-248.286t-273.143-95.143q-83.429 0-161.429 31.429t-139.143 89.714l-73.714-73.714q-10.857-10.857-25.714-10.857t-25.714 10.857-10.857 25.714v256q0 14.857 10.857 25.714t25.714 10.857h256q14.857 0 25.714-10.857t10.857-25.714-10.857-25.714l-78.286-78.286q40.571-37.714 92-58.286t106.857-20.571q76.571 0 142.857 37.143t106.286 102.286q6.286 9.714 30.286 66.857 4.571 13.143 17.143 13.143h109.714q7.429 0 12.857-5.429t5.429-12.857zM877.714 749.714v-256q0-14.857-10.857-25.714t-25.714-10.857h-256q-14.857 0-25.714 10.857t-10.857 25.714 10.857 25.714l78.857 78.857q-84.571 78.286-199.429 78.286-76.571 0-142.857-37.143t-106.286-102.286q-6.286-9.714-30.286-66.857-4.571-13.143-17.143-13.143h-113.714q-7.429 0-12.857 5.429t-5.429 12.857v4q37.143 153.143 154.286 248.286t274.286 95.143q83.429 0 162.286-31.714t140-89.429l74.286 73.714q10.857 10.857 25.714 10.857t25.714-10.857 10.857-25.714z" />
<glyph unicode="&#xf024;" glyph-name="flag" d="M182.857 749.714q0-41.143-36.571-62.857v-723.429q0-7.429-5.429-12.857t-12.857-5.429h-36.571q-7.429 0-12.857 5.429t-5.429 12.857v723.429q-36.571 21.714-36.571 62.857 0 30.286 21.429 51.714t51.714 21.429 51.714-21.429 21.429-51.714zM1024 713.143v-436q0-14.286-7.143-22t-22.571-15.714q-122.857-66.286-210.857-66.286-34.857 0-70.571 12.571t-62 27.429-66 27.429-81.429 12.571q-109.714 0-265.143-83.429-9.714-5.143-18.857-5.143-14.857 0-25.714 10.857t-10.857 25.714v424q0 18.286 17.714 31.429 12 8 45.143 24.571 134.857 68.571 240.571 68.571 61.143 0 114.286-16.571t125.143-50.286q21.714-10.857 50.286-10.857 30.857 0 67.143 12t62.857 26.857 50.286 26.857 31.143 12q14.857 0 25.714-10.857t10.857-25.714z" />
<glyph unicode="&#xf029;" glyph-name="qrcode" horiz-adv-x="805" d="M219.429 237.714v-73.143h-73.143v73.143h73.143zM219.429 676.571v-73.143h-73.143v73.143h73.143zM658.286 676.571v-73.143h-73.143v73.143h73.143zM73.143 92h219.429v218.857h-219.429v-218.857zM73.143 530.286h219.429v219.429h-219.429v-219.429zM512 530.286h219.429v219.429h-219.429v-219.429zM365.714 384v-365.714h-365.714v365.714h365.714zM658.286 91.429v-73.143h-73.143v73.143h73.143zM804.571 91.429v-73.143h-73.143v73.143h73.143zM804.571 384v-219.429h-219.429v73.143h-73.143v-219.429h-73.143v365.714h219.429v-73.143h73.143v73.143h73.143zM365.714 822.857v-365.714h-365.714v365.714h365.714zM804.571 822.857v-365.714h-365.714v365.714h365.714z" />
<glyph unicode="&#xf030;" glyph-name="camera" horiz-adv-x="1097" d="M548.571 512q68 0 116.286-48.286t48.286-116.286-48.286-116.286-116.286-48.286-116.286 48.286-48.286 116.286 48.286 116.286 116.286 48.286zM950.857 749.714q60.571 0 103.429-42.857t42.857-103.429v-512q0-60.571-42.857-103.429t-103.429-42.857h-804.571q-60.571 0-103.429 42.857t-42.857 103.429v512q0 60.571 42.857 103.429t103.429 42.857h128l29.143 77.714q10.857 28 39.714 48.286t59.143 20.286h292.571q30.286 0 59.143-20.286t39.714-48.286l29.143-77.714h128zM548.571 91.429q105.714 0 180.857 75.143t75.143 180.857-75.143 180.857-180.857 75.143-180.857-75.143-75.143-180.857 75.143-180.857 180.857-75.143z" />
<glyph unicode="&#xf03e;" glyph-name="picture-o" horiz-adv-x="1097" d="M365.714 566.857q0-45.714-32-77.714t-77.714-32-77.714 32-32 77.714 32 77.714 77.714 32 77.714-32 32-77.714zM950.857 347.429v-256h-804.571v109.714l182.857 182.857 91.429-91.429 292.571 292.571zM1005.714 749.714h-914.286q-7.429 0-12.857-5.429t-5.429-12.857v-694.857q0-7.429 5.429-12.857t12.857-5.429h914.286q7.429 0 12.857 5.429t5.429 12.857v694.857q0 7.429-5.429 12.857t-12.857 5.429zM1097.143 731.429v-694.857q0-37.714-26.857-64.571t-64.571-26.857h-914.286q-37.714 0-64.571 26.857t-26.857 64.571v694.857q0 37.714 26.857 64.571t64.571 26.857h914.286q37.714 0 64.571-26.857t26.857-64.571z" />
<glyph unicode="&#xf040;" glyph-name="pencil" d="M207.429 18.286l52 52-134.286 134.286-52-52v-61.143h73.143v-73.143h61.143zM506.286 548.571q0 12.571-12.571 12.571-5.714 0-9.714-4l-309.714-309.714q-4-4-4-9.714 0-12.571 12.571-12.571 5.714 0 9.714 4l309.714 309.714q4 4 4 9.714zM475.429 658.286l237.714-237.714-475.429-475.429h-237.714v237.714zM865.714 603.429q0-30.286-21.143-51.429l-94.857-94.857-237.714 237.714 94.857 94.286q20.571 21.714 51.429 21.714 30.286 0 52-21.714l134.286-133.714q21.143-22.286 21.143-52z" />
<glyph unicode="&#xf041;" glyph-name="map-marker" horiz-adv-x="585" d="M438.857 530.286q0 60.571-42.857 103.429t-103.429 42.857-103.429-42.857-42.857-103.429 42.857-103.429 103.429-42.857 103.429 42.857 42.857 103.429zM585.143 530.286q0-62.286-18.857-102.286l-208-442.286q-9.143-18.857-27.143-29.714t-38.571-10.857-38.571 10.857-26.571 29.714l-208.571 442.286q-18.857 40-18.857 102.286 0 121.143 85.714 206.857t206.857 85.714 206.857-85.714 85.714-206.857z" />
<glyph unicode="&#xf053;" glyph-name="chevron-left" horiz-adv-x="731" d="M669.143 724l-303.429-303.429 303.429-303.429q10.857-10.857 10.857-25.714t-10.857-25.714l-94.857-94.857q-10.857-10.857-25.714-10.857t-25.714 10.857l-424 424q-10.857 10.857-10.857 25.714t10.857 25.714l424 424q10.857 10.857 25.714 10.857t25.714-10.857l94.857-94.857q10.857-10.857 10.857-25.714t-10.857-25.714z" />
<glyph unicode="&#xf054;" glyph-name="chevron-right" horiz-adv-x="731" d="M632.571 394.857l-424-424q-10.857-10.857-25.714-10.857t-25.714 10.857l-94.857 94.857q-10.857 10.857-10.857 25.714t10.857 25.714l303.429 303.429-303.429 303.429q-10.857 10.857-10.857 25.714t10.857 25.714l94.857 94.857q10.857 10.857 25.714 10.857t25.714-10.857l424-424q10.857-10.857 10.857-25.714t-10.857-25.714z" />
<glyph unicode="&#xf055;" glyph-name="plus-circle" d="M694.857 347.429v73.143q0 14.857-10.857 25.714t-25.714 10.857h-146.286v146.286q0 14.857-10.857 25.714t-25.714 10.857h-73.143q-14.857 0-25.714-10.857t-10.857-25.714v-146.286h-146.286q-14.857 0-25.714-10.857t-10.857-25.714v-73.143q0-14.857 10.857-25.714t25.714-10.857h146.286v-146.286q0-14.857 10.857-25.714t25.714-10.857h73.143q14.857 0 25.714 10.857t10.857 25.714v146.286h146.286q14.857 0 25.714 10.857t10.857 25.714zM877.714 384q0-119.429-58.857-220.286t-159.714-159.714-220.286-58.857-220.286 58.857-159.714 159.714-58.857 220.286 58.857 220.286 159.714 159.714 220.286 58.857 220.286-58.857 159.714-159.714 58.857-220.286z" />
<glyph unicode="&#xf056;" glyph-name="minus-circle" d="M694.857 347.429v73.143q0 14.857-10.857 25.714t-25.714 10.857h-438.857q-14.857 0-25.714-10.857t-10.857-25.714v-73.143q0-14.857 10.857-25.714t25.714-10.857h438.857q14.857 0 25.714 10.857t10.857 25.714zM877.714 384q0-119.429-58.857-220.286t-159.714-159.714-220.286-58.857-220.286 58.857-159.714 159.714-58.857 220.286 58.857 220.286 159.714 159.714 220.286 58.857 220.286-58.857 159.714-159.714 58.857-220.286z" />
<glyph unicode="&#xf057;" glyph-name="times-circle" d="M656.571 254.857q0 14.857-10.857 25.714l-103.429 103.429 103.429 103.429q10.857 10.857 10.857 25.714 0 15.429-10.857 26.286l-51.429 51.429q-10.857 10.857-26.286 10.857-14.857 0-25.714-10.857l-103.429-103.429-103.429 103.429q-10.857 10.857-25.714 10.857-15.429 0-26.286-10.857l-51.429-51.429q-10.857-10.857-10.857-26.286 0-14.857 10.857-25.714l103.429-103.429-103.429-103.429q-10.857-10.857-10.857-25.714 0-15.429 10.857-26.286l51.429-51.429q10.857-10.857 26.286-10.857 14.857 0 25.714 10.857l103.429 103.429 103.429-103.429q10.857-10.857 25.714-10.857 15.429 0 26.286 10.857l51.429 51.429q10.857 10.857 10.857 26.286zM877.714 384q0-119.429-58.857-220.286t-159.714-159.714-220.286-58.857-220.286 58.857-159.714 159.714-58.857 220.286 58.857 220.286 159.714 159.714 220.286 58.857 220.286-58.857 159.714-159.714 58.857-220.286z" />
<glyph unicode="&#xf058;" glyph-name="check-circle" d="M733.714 476.571q0 16-10.286 26.286l-52 51.429q-10.857 10.857-25.714 10.857t-25.714-10.857l-233.143-232.571-129.143 129.143q-10.857 10.857-25.714 10.857t-25.714-10.857l-52-51.429q-10.286-10.286-10.286-26.286 0-15.429 10.286-25.714l206.857-206.857q10.857-10.857 25.714-10.857 15.429 0 26.286 10.857l310.286 310.286q10.286 10.286 10.286 25.714zM877.714 384q0-119.429-58.857-220.286t-159.714-159.714-220.286-58.857-220.286 58.857-159.714 159.714-58.857 220.286 58.857 220.286 159.714 159.714 220.286 58.857 220.286-58.857 159.714-159.714 58.857-220.286z" />
<glyph unicode="&#xf059;" glyph-name="question-circle" d="M512 109.714v109.714q0 8-5.143 13.143t-13.143 5.143h-109.714q-8 0-13.143-5.143t-5.143-13.143v-109.714q0-8 5.143-13.143t13.143-5.143h109.714q8 0 13.143 5.143t5.143 13.143zM658.286 493.714q0 50.286-31.714 93.143t-79.143 66.286-97.143 23.429q-138.857 0-212-121.714-8.571-13.714 4.571-24l75.429-57.143q4-3.429 10.857-3.429 9.143 0 14.286 6.857 30.286 38.857 49.143 52.571 19.429 13.714 49.143 13.714 27.429 0 48.857-14.857t21.429-33.714q0-21.714-11.429-34.857t-38.857-25.714q-36-16-66-49.429t-30-71.714v-20.571q0-8 5.143-13.143t13.143-5.143h109.714q8 0 13.143 5.143t5.143 13.143q0 10.857 12.286 28.286t31.143 28.286q18.286 10.286 28 16.286t26.286 20 25.429 27.429 16 34.571 7.143 46.286zM877.714 384q0-119.429-58.857-220.286t-159.714-159.714-220.286-58.857-220.286 58.857-159.714 159.714-58.857 220.286 58.857 220.286 159.714 159.714 220.286 58.857 220.286-58.857 159.714-159.714 58.857-220.286z" />
<glyph unicode="&#xf05a;" glyph-name="info-circle" d="M585.143 109.714v91.429q0 8-5.143 13.143t-13.143 5.143h-54.857v292.571q0 8-5.143 13.143t-13.143 5.143h-182.857q-8 0-13.143-5.143t-5.143-13.143v-91.429q0-8 5.143-13.143t13.143-5.143h54.857v-182.857h-54.857q-8 0-13.143-5.143t-5.143-13.143v-91.429q0-8 5.143-13.143t13.143-5.143h256q8 0 13.143 5.143t5.143 13.143zM512 621.714v91.429q0 8-5.143 13.143t-13.143 5.143h-109.714q-8 0-13.143-5.143t-5.143-13.143v-91.429q0-8 5.143-13.143t13.143-5.143h109.714q8 0 13.143 5.143t5.143 13.143zM877.714 384q0-119.429-58.857-220.286t-159.714-159.714-220.286-58.857-220.286 58.857-159.714 159.714-58.857 220.286 58.857 220.286 159.714 159.714 220.286 58.857 220.286-58.857 159.714-159.714 58.857-220.286z" />
<glyph unicode="&#xf05e;" glyph-name="ban" d="M749.714 385.714q0 92-49.714 168.571l-430.857-430.286q78.286-50.857 169.714-50.857 63.429 0 120.857 24.857t99.143 66.571 66.286 99.714 24.571 121.429zM178.857 214.857l431.429 430.857q-77.143 52-171.429 52-84.571 0-156-41.714t-113.143-113.714-41.714-156.571q0-92.571 50.857-170.857zM877.714 385.714q0-89.714-34.857-171.429t-93.429-140.571-140-93.714-170.571-34.857-170.571 34.857-140 93.714-93.429 140.571-34.857 171.429 34.857 171.143 93.429 140.286 140 93.714 170.571 34.857 170.571-34.857 140-93.714 93.429-140.286 34.857-171.143z" />
<glyph unicode="&#xf060;" glyph-name="arrow-left" d="M864.569 384v-70.515q0-29.198-17.903-49.856t-46.55-20.659h-387.826l161.411-161.962q20.934-19.831 20.934-49.581t-20.934-49.581l-41.317-41.867q-20.383-20.383-49.581-20.383-28.646 0-50.128 20.383l-358.628 359.179q-20.383 20.383-20.383 49.581 0 28.646 20.383 50.128l358.628 358.079q20.934 20.934 50.128 20.934 28.646 0 49.581-20.934l41.317-40.766q20.934-20.934 20.934-50.128t-20.934-50.128l-161.411-161.411h387.826q28.646 0 46.55-20.659t17.903-49.856z" />
<glyph unicode="&#xf061;" glyph-name="arrow-right" d="M829.313 348.743q0-29.747-20.383-50.131l-358.63-358.63q-21.483-20.383-50.131-20.383-28.095 0-49.581 20.383l-41.317 41.317q-20.934 20.934-20.934 50.131t20.934 50.131l161.411 161.411h-387.826q-28.646 0-46.55 20.659t-17.903 49.856v70.513q0 29.198 17.903 49.856t46.55 20.659h387.826l-161.411 161.962q-20.934 19.831-20.934 49.581t20.934 49.581l41.317 41.317q20.934 20.934 49.581 20.934 29.198 0 50.131-20.934l358.63-358.63q20.383-19.282 20.383-49.581z" />
<glyph unicode="&#xf062;" glyph-name="arrow-up" horiz-adv-x="951" d="M903.639 342.773q0-28.035-20.339-49.473l-41.227-41.227q-20.888-20.888-50.022-20.888-29.683 0-49.473 20.888l-161.608 161.059v-386.982q0-28.584-20.613-46.449t-49.746-17.865h-70.361q-29.134 0-49.746 17.865t-20.613 46.449v386.982l-161.608-161.059q-19.789-20.888-49.473-20.888t-49.473 20.888l-41.227 41.227q-20.888 20.888-20.888 49.473 0 29.134 20.888 50.022l357.848 357.848q19.24 20.339 49.473 20.339 29.683 0 50.022-20.339l357.848-357.848q20.339-21.438 20.339-50.022z" />
<glyph unicode="&#xf063;" glyph-name="arrow-down" horiz-adv-x="951" d="M903.765 419.19q0-29.142-20.345-49.487l-357.952-358.503q-21.444-20.345-50.036-20.345-29.142 0-49.487 20.345l-357.952 358.503q-20.894 19.795-20.894 49.487 0 29.142 20.894 50.036l40.69 41.239q21.444 20.345 50.036 20.345 29.142 0 49.487-20.345l161.656-161.656v387.096q0 28.592 20.894 49.487t49.487 20.894h70.381q28.592 0 49.487-20.894t20.894-49.487v-387.096l161.656 161.656q20.345 20.345 49.487 20.345 28.592 0 50.036-20.345l41.239-41.239q20.345-21.444 20.345-50.036z" />
<glyph unicode="&#xf067;" glyph-name="plus" horiz-adv-x="805" d="M804.571 475.429v-109.714q0-22.857-16-38.857t-38.857-16h-237.714v-237.714q0-22.857-16-38.857t-38.857-16h-109.714q-22.857 0-38.857 16t-16 38.857v237.714h-237.714q-22.857 0-38.857 16t-16 38.857v109.714q0 22.857 16 38.857t38.857 16h237.714v237.714q0 22.857 16 38.857t38.857 16h109.714q22.857 0 38.857-16t16-38.857v-237.714h237.714q22.857 0 38.857-16t16-38.857z" />
<glyph unicode="&#xf068;" glyph-name="minus" horiz-adv-x="805" d="M804.571 475.429v-109.714q0-22.857-16-38.857t-38.857-16h-694.857q-22.857 0-38.857 16t-16 38.857v109.714q0 22.857 16 38.857t38.857 16h694.857q22.857 0 38.857-16t16-38.857z" />
<glyph unicode="&#xf06a;" glyph-name="exclamation-circle" d="M438.857 822.857q119.429 0 220.286-58.857t159.714-159.714 58.857-220.286-58.857-220.286-159.714-159.714-220.286-58.857-220.286 58.857-159.714 159.714-58.857 220.286 58.857 220.286 159.714 159.714 220.286 58.857zM512 110.286v108.571q0 8-5.143 13.429t-12.571 5.429h-109.714q-7.429 0-13.143-5.714t-5.714-13.143v-108.571q0-7.429 5.714-13.143t13.143-5.714h109.714q7.429 0 12.571 5.429t5.143 13.429zM510.857 306.857l10.286 354.857q0 6.857-5.714 10.286-5.714 4.571-13.714 4.571h-125.714q-8 0-13.714-4.571-5.714-3.429-5.714-10.286l9.714-354.857q0-5.714 5.714-10t13.714-4.286h105.714q8 0 13.429 4.286t6 10z" />
<glyph unicode="&#xf071;" glyph-name="exclamation-triangle" d="M585.143 110.286v108.571q0 8-5.429 13.429t-12.857 5.429h-109.714q-7.429 0-12.857-5.429t-5.429-13.429v-108.571q0-8 5.429-13.429t12.857-5.429h109.714q7.429 0 12.857 5.429t5.429 13.429zM584 324l10.286 262.286q0 6.857-5.714 10.857-7.429 6.286-13.714 6.286h-125.714q-6.286 0-13.714-6.286-5.714-4-5.714-12l9.714-261.143q0-5.714 5.714-9.429t13.714-3.714h105.714q8 0 13.429 3.714t6 9.429zM576 857.714l438.857-804.571q20-36-1.143-72-9.714-16.571-26.571-26.286t-36.286-9.714h-877.714q-19.429 0-36.286 9.714t-26.571 26.286q-21.143 36-1.143 72l438.857 804.571q9.714 17.714 26.857 28t37.143 10.286 37.143-10.286 26.857-28z" />
<glyph unicode="&#xf073;" glyph-name="calendar" horiz-adv-x="951" d="M73.143-54.857h164.571v164.571h-164.571v-164.571zM274.286-54.857h182.857v164.571h-182.857v-164.571zM73.143 146.286h164.571v182.857h-164.571v-182.857zM274.286 146.286h182.857v182.857h-182.857v-182.857zM73.143 365.714h164.571v164.571h-164.571v-164.571zM493.714-54.857h182.857v164.571h-182.857v-164.571zM274.286 365.714h182.857v164.571h-182.857v-164.571zM713.143-54.857h164.571v164.571h-164.571v-164.571zM493.714 146.286h182.857v182.857h-182.857v-182.857zM292.571 640v164.571q0 7.429-5.429 12.857t-12.857 5.429h-36.571q-7.429 0-12.857-5.429t-5.429-12.857v-164.571q0-7.429 5.429-12.857t12.857-5.429h36.571q7.429 0 12.857 5.429t5.429 12.857zM713.143 146.286h164.571v182.857h-164.571v-182.857zM493.714 365.714h182.857v164.571h-182.857v-164.571zM713.143 365.714h164.571v164.571h-164.571v-164.571zM731.429 640v164.571q0 7.429-5.429 12.857t-12.857 5.429h-36.571q-7.429 0-12.857-5.429t-5.429-12.857v-164.571q0-7.429 5.429-12.857t12.857-5.429h36.571q7.429 0 12.857 5.429t5.429 12.857zM950.857 676.571v-731.429q0-29.714-21.714-51.429t-51.429-21.714h-804.571q-29.714 0-51.429 21.714t-21.714 51.429v731.429q0 29.714 21.714 51.429t51.429 21.714h73.143v54.857q0 37.714 26.857 64.571t64.571 26.857h36.571q37.714 0 64.571-26.857t26.857-64.571v-54.857h219.429v54.857q0 37.714 26.857 64.571t64.571 26.857h36.571q37.714 0 64.571-26.857t26.857-64.571v-54.857h73.143q29.714 0 51.429-21.714t21.714-51.429z" />
<glyph unicode="&#xf077;" glyph-name="chevron-up" d="M961.714 135.429l-94.857-94.286q-10.857-10.857-25.714-10.857t-25.714 10.857l-303.429 303.429-303.429-303.429q-10.857-10.857-25.714-10.857t-25.714 10.857l-94.857 94.286q-10.857 10.857-10.857 26t10.857 26l424 423.429q10.857 10.857 25.714 10.857t25.714-10.857l424-423.429q10.857-10.857 10.857-26t-10.857-26z" />
<glyph unicode="&#xf078;" glyph-name="chevron-down" d="M961.714 434.286l-424-423.429q-10.857-10.857-25.714-10.857t-25.714 10.857l-424 423.429q-10.857 10.857-10.857 26t10.857 26l94.857 94.286q10.857 10.857 25.714 10.857t25.714-10.857l303.429-303.429 303.429 303.429q10.857 10.857 25.714 10.857t25.714-10.857l94.857-94.286q10.857-10.857 10.857-26t-10.857-26z" />
<glyph unicode="&#xf07a;" glyph-name="shopping-cart" horiz-adv-x="951" d="M365.714 18.286q0-29.714-21.714-51.429t-51.429-21.714-51.429 21.714-21.714 51.429 21.714 51.429 51.429 21.714 51.429-21.714 21.714-51.429zM877.714 18.286q0-29.714-21.714-51.429t-51.429-21.714-51.429 21.714-21.714 51.429 21.714 51.429 51.429 21.714 51.429-21.714 21.714-51.429zM950.857 640v-292.571q0-13.714-9.429-24.286t-23.143-12.286l-596.571-69.714q7.429-34.286 7.429-40 0-9.143-13.714-36.571h525.714q14.857 0 25.714-10.857t10.857-25.714-10.857-25.714-25.714-10.857h-585.143q-14.857 0-25.714 10.857t-10.857 25.714q0 6.286 4.571 18t9.143 20.571 12.286 22.857 8.857 16.857l-101.143 470.286h-116.571q-14.857 0-25.714 10.857t-10.857 25.714 10.857 25.714 25.714 10.857h146.286q9.143 0 16.286-3.714t11.143-8.857 7.429-14 4.571-14.857 3.143-16.857 2.571-14.857h686.286q14.857 0 25.714-10.857t10.857-25.714z" />
<glyph unicode="&#xf07b;" glyph-name="folder" horiz-adv-x="951" d="M950.857 548.571v-402.286q0-52.571-37.714-90.286t-90.286-37.714h-694.857q-52.571 0-90.286 37.714t-37.714 90.286v548.571q0 52.571 37.714 90.286t90.286 37.714h182.857q52.571 0 90.286-37.714t37.714-90.286v-18.286h384q52.571 0 90.286-37.714t37.714-90.286z" />
<glyph unicode="&#xf07c;" glyph-name="folder-open" horiz-adv-x="1097" d="M1073.714 352q0-17.714-17.714-37.714l-192-226.286q-24.571-29.143-68.857-49.429t-82-20.286h-621.714q-19.429 0-34.571 7.429t-15.143 24.571q0 17.714 17.714 37.714l192 226.286q24.571 29.143 68.857 49.429t82 20.286h621.714q19.429 0 34.571-7.429t15.143-24.571zM877.714 548.571v-91.429h-475.429q-53.714 0-112.571-27.143t-93.714-68.286l-195.429-229.714q0 2.286-0.286 7.143t-0.286 7.143v548.571q0 52.571 37.714 90.286t90.286 37.714h182.857q52.571 0 90.286-37.714t37.714-90.286v-18.286h310.857q52.571 0 90.286-37.714t37.714-90.286z" />
<glyph unicode="&#xf080;" glyph-name="bar-chart" horiz-adv-x="1170" d="M365.714 384v-292.571h-146.286v292.571h146.286zM585.143 676.571v-585.143h-146.286v585.143h146.286zM1170.286 18.286v-73.143h-1170.286v877.714h73.143v-804.571h1097.143zM804.571 530.286v-438.857h-146.286v438.857h146.286zM1024 749.714v-658.286h-146.286v658.286h146.286z" />
<glyph unicode="&#xf086;" glyph-name="comments" d="M804.571 457.143q0-79.429-53.714-146.857t-146.571-106.571-202-39.143q-49.143 0-100.571 9.143-70.857-50.286-158.857-73.143-20.571-5.143-49.143-9.143h-1.714q-6.286 0-11.714 4.571t-6.571 12q-0.571 1.714-0.571 3.714t0.286 3.714 1.143 3.429l1.429 2.857t2 3.143 2.286 2.857 2.571 2.857 2.286 2.571q2.857 3.429 13.143 14.286t14.857 16.857 12.857 16.571 14.286 22 11.714 25.143q-70.857 41.143-111.429 101.143t-40.571 128q0 79.429 53.714 146.857t146.571 106.571 202 39.143 202-39.143 146.571-106.571 53.714-146.857zM1024 310.857q0-68.571-40.571-128.286t-111.429-100.857q5.714-13.714 11.714-25.143t14.286-22 12.857-16.571 14.857-16.857 13.143-14.286q0.571-0.571 2.286-2.571t2.571-2.857 2.286-2.857 2-3.143l1.429-2.857t1.143-3.429 0.286-3.714-0.571-3.714q-1.714-8-7.429-12.571t-12.571-4q-28.571 4-49.143 9.143-88 22.857-158.857 73.143-51.429-9.143-100.571-9.143-154.857 0-269.714 75.429 33.143-2.286 50.286-2.286 92 0 176.571 25.714t150.857 73.714q71.429 52.571 109.714 121.143t38.286 145.143q0 44-13.143 86.857 73.714-40.571 116.571-101.714t42.857-131.429z" />
<glyph unicode="&#xf087;" glyph-name="thumbs-o-up" d="M146.286 128q0 14.857-10.857 25.714t-25.714 10.857-25.714-10.857-10.857-25.714 10.857-25.714 25.714-10.857 25.714 10.857 10.857 25.714zM804.571 457.143q0 29.143-22.286 51.143t-50.857 22h-201.143q0 33.143 27.429 91.143t27.429 91.714q0 56-18.286 82.857t-73.143 26.857q-14.857-14.857-21.714-48.571t-17.429-71.714-34-62.571q-12.571-13.143-44-52-2.286-2.857-13.143-17.143t-18-23.429-19.714-24.286-22.857-25.143-22-20.286-22.857-15.429-20.286-5.143h-18.286v-365.714h18.286q7.429 0 18-1.714t18.857-3.714 21.714-6.286 20-6.571 20.286-7.143 16.571-6q120.571-41.714 195.429-41.714h69.143q109.714 0 109.714 95.429 0 14.857-2.857 32 17.143 9.143 27.143 30t10 42-10.286 39.429q30.286 28.571 30.286 68 0 14.286-5.714 31.714t-14.286 27.143q18.286 0.571 30.571 26.857t12.286 46.286zM877.714 457.714q0-50.857-28-93.143 5.143-18.857 5.143-39.429 0-44-21.714-82.286 1.714-12 1.714-24.571 0-57.714-34.286-101.714 0.571-79.429-48.571-125.429t-129.714-46h-73.714q-54.857 0-108.286 12.857t-123.714 37.429q-66.286 22.857-78.857 22.857h-164.571q-30.286 0-51.714 21.429t-21.429 51.714v365.714q0 30.286 21.429 51.714t51.714 21.429h156.571q20.571 13.714 78.286 88.571 33.143 42.857 61.143 73.143 13.714 14.286 20.286 48.857t17.429 72.286 35.429 61.714q22.286 21.143 51.429 21.143 48 0 86.286-18.571t58.286-58 20-106.286q0-53.143-27.429-109.714h100.571q59.429 0 102.857-43.429t43.429-102.286z" />
<glyph unicode="&#xf088;" glyph-name="thumbs-o-down" d="M146.286 640q0 14.857-10.857 25.714t-25.714 10.857-25.714-10.857-10.857-25.714 10.857-25.714 25.714-10.857 25.714 10.857 10.857 25.714zM804.571 310.857q0 20-12.286 46.286t-30.571 26.857q8.571 9.714 14.286 27.143t5.714 31.714q0 39.429-30.286 68 10.286 18.286 10.286 39.429t-10 42-27.143 30q2.857 17.143 2.857 32 0 48.571-28 72t-77.714 23.429h-73.143q-74.857 0-195.429-41.714-2.857-1.143-16.571-6t-20.286-7.143-20-6.571-21.714-6.286-18.857-3.714-18-1.714h-18.286v-365.714h18.286q9.143 0 20.286-5.143t22.857-15.429 22-20.286 22.857-25.143 19.714-24.286 18-23.429 13.143-17.143q31.429-38.857 44-52 23.429-24.571 34-62.571t17.429-71.714 21.714-48.571q54.857 0 73.143 26.857t18.286 82.857q0 33.714-27.429 91.714t-27.429 91.143h201.143q28.571 0 50.857 22t22.286 51.143zM877.714 310.286q0-58.857-43.429-102.286t-102.857-43.429h-100.571q27.429-56.571 27.429-109.714 0-67.429-20-106.286-20-39.429-58.286-58t-86.286-18.571q-29.143 0-51.429 21.143-19.429 18.857-30.857 46.857t-14.571 51.714-10 48.286-17.714 36.571q-27.429 28.571-61.143 72.571-57.714 74.857-78.286 88.571h-156.571q-30.286 0-51.714 21.429t-21.429 51.714v365.714q0 30.286 21.429 51.714t51.714 21.429h164.571q12.571 0 78.857 22.857 73.143 25.143 127.429 37.714t114.286 12.571h64q80 0 129.429-45.143t48.857-123.429v-2.857q34.286-44 34.286-101.714 0-12.571-1.714-24.571 21.714-38.286 21.714-82.286 0-20.571-5.143-39.429 28-42.286 28-93.143z" />
<glyph unicode="&#xf08a;" glyph-name="heart-o" d="M950.857 555.429q0 46.286-12.286 81.714t-31.429 56.286-46.571 34-53.714 17.714-56 4.571-64-14.571-63.143-36.571-49.429-41.143-34.286-35.143q-10.286-12.571-28-12.571t-28 12.571q-13.714 16-34.286 35.143t-49.429 41.143-63.143 36.571-64 14.571-56-4.571-53.714-17.714-46.571-34-31.429-56.286-12.286-81.714q0-96 106.857-202.857l332-320 331.429 319.429q107.429 107.429 107.429 203.429zM1024 555.429q0-126.286-130.857-257.143l-356-342.857q-10.286-10.286-25.143-10.286t-25.143 10.286l-356.571 344q-5.714 4.571-15.714 14.857t-31.714 37.429-38.857 55.714-30.571 69.143-13.429 78.857q0 125.714 72.571 196.571t200.571 70.857q35.429 0 72.286-12.286t68.571-33.143 54.571-39.143 43.429-38.857q20.571 20.571 43.429 38.857t54.571 39.143 68.571 33.143 72.286 12.286q128 0 200.571-70.857t72.571-196.571z" />
<glyph unicode="&#xf093;" glyph-name="upload" horiz-adv-x="951" d="M731.429 54.857q0 14.857-10.857 25.714t-25.714 10.857-25.714-10.857-10.857-25.714 10.857-25.714 25.714-10.857 25.714 10.857 10.857 25.714zM877.714 54.857q0 14.857-10.857 25.714t-25.714 10.857-25.714-10.857-10.857-25.714 10.857-25.714 25.714-10.857 25.714 10.857 10.857 25.714zM950.857 182.857v-182.857q0-22.857-16-38.857t-38.857-16h-841.143q-22.857 0-38.857 16t-16 38.857v182.857q0 22.857 16 38.857t38.857 16h244q12-32 40.286-52.571t63.143-20.571h146.286q34.857 0 63.143 20.571t40.286 52.571h244q22.857 0 38.857-16t16-38.857zM765.143 553.143q-9.714-22.857-33.714-22.857h-146.286v-256q0-14.857-10.857-25.714t-25.714-10.857h-146.286q-14.857 0-25.714 10.857t-10.857 25.714v256h-146.286q-24 0-33.714 22.857-9.714 22.286 8 39.429l256 256q10.286 10.857 25.714 10.857t25.714-10.857l256-256q17.714-17.143 8-39.429z" />
<glyph unicode="&#xf095;" glyph-name="phone" horiz-adv-x="805" d="M804.571 187.429q0-15.429-5.714-40.286t-12-39.143q-12-28.571-69.714-60.571-53.714-29.143-106.286-29.143-15.429 0-30 2t-32.857 7.143-27.143 8.286-31.714 11.714-28 10.286q-56 20-100 47.429-73.143 45.143-151.143 123.143t-123.143 151.143q-27.429 44-47.429 100-1.714 5.143-10.286 28t-11.714 31.714-8.286 27.143-7.143 32.857-2 30q0 52.571 29.143 106.286 32 57.714 60.571 69.714 14.286 6.286 39.143 12t40.286 5.714q8 0 12-1.714 10.286-3.429 30.286-43.429 6.286-10.857 17.143-30.857t20-36.286 17.714-30.571q1.714-2.286 10-14.286t12.286-20.286 4-16.286q0-11.429-16.286-28.571t-35.429-31.429-35.429-30.286-16.286-26.286q0-5.143 2.857-12.857t4.857-11.714 8-13.714 6.571-10.857q43.429-78.286 99.429-134.286t134.286-99.429q1.143-0.571 10.857-6.571t13.714-8 11.714-4.857 12.857-2.857q10.286 0 26.286 16.286t30.286 35.429 31.429 35.429 28.571 16.286q8 0 16.286-4t20.286-12.286 14.286-10q14.286-8.571 30.571-17.714t36.286-20 30.857-17.143q40-20 43.429-30.286 1.714-4 1.714-12z" />
<glyph unicode="&#xf09d;" glyph-name="credit-card" horiz-adv-x="1097" d="M1005.714 822.857q37.714 0 64.571-26.857t26.857-64.571v-694.857q0-37.714-26.857-64.571t-64.571-26.857h-914.286q-37.714 0-64.571 26.857t-26.857 64.571v694.857q0 37.714 26.857 64.571t64.571 26.857h914.286zM91.429 749.714q-7.429 0-12.857-5.429t-5.429-12.857v-128h950.857v128q0 7.429-5.429 12.857t-12.857 5.429h-914.286zM1005.714 18.286q7.429 0 12.857 5.429t5.429 12.857v347.429h-950.857v-347.429q0-7.429 5.429-12.857t12.857-5.429h914.286zM146.286 91.429v73.143h146.286v-73.143h-146.286zM365.714 91.429v73.143h219.429v-73.143h-219.429z" />
<glyph unicode="&#xf0a8;" glyph-name="arrow-circle-left" d="M731.429 347.429v73.143q0 14.857-10.857 25.714t-25.714 10.857h-286.857l108 108q10.857 10.857 10.857 25.714t-10.857 25.714l-52 52q-10.286 10.286-25.714 10.286t-25.714-10.286l-258.857-258.857q-10.286-10.286-10.286-25.714t10.286-25.714l258.857-258.857q10.286-10.286 25.714-10.286t25.714 10.286l52 52q10.286 10.286 10.286 25.714t-10.286 25.714l-108 108h286.857q14.857 0 25.714 10.857t10.857 25.714zM877.714 384q0-119.429-58.857-220.286t-159.714-159.714-220.286-58.857-220.286 58.857-159.714 159.714-58.857 220.286 58.857 220.286 159.714 159.714 220.286 58.857 220.286-58.857 159.714-159.714 58.857-220.286z" />
<glyph unicode="&#xf0a9;" glyph-name="arrow-circle-right" d="M734.286 384q0 15.429-10.286 25.714l-258.857 258.857q-10.286 10.286-25.714 10.286t-25.714-10.286l-52-52q-10.286-10.286-10.286-25.714t10.286-25.714l108-108h-286.857q-14.857 0-25.714-10.857t-10.857-25.714v-73.143q0-14.857 10.857-25.714t25.714-10.857h286.857l-108-108q-10.857-10.857-10.857-25.714t10.857-25.714l52-52q10.286-10.286 25.714-10.286t25.714 10.286l258.857 258.857q10.286 10.286 10.286 25.714zM877.714 384q0-119.429-58.857-220.286t-159.714-159.714-220.286-58.857-220.286 58.857-159.714 159.714-58.857 220.286 58.857 220.286 159.714 159.714 220.286 58.857 220.286-58.857 159.714-159.714 58.857-220.286z" />
<glyph unicode="&#xf0aa;" glyph-name="arrow-circle-up" d="M733.714 384.571q0 15.429-10.286 25.714l-258.857 258.857q-10.286 10.286-25.714 10.286t-25.714-10.286l-258.857-258.857q-10.286-10.286-10.286-25.714t10.286-25.714l52-52q10.286-10.286 25.714-10.286t25.714 10.286l108 108v-286.857q0-14.857 10.857-25.714t25.714-10.857h73.143q14.857 0 25.714 10.857t10.857 25.714v286.857l108-108q10.857-10.857 25.714-10.857t25.714 10.857l52 52q10.286 10.286 10.286 25.714zM877.714 384q0-119.429-58.857-220.286t-159.714-159.714-220.286-58.857-220.286 58.857-159.714 159.714-58.857 220.286 58.857 220.286 159.714 159.714 220.286 58.857 220.286-58.857 159.714-159.714 58.857-220.286z" />
<glyph unicode="&#xf0ab;" glyph-name="arrow-circle-down" d="M733.714 383.429q0 15.429-10.286 25.714l-52 52q-10.286 10.286-25.714 10.286t-25.714-10.286l-108-108v286.857q0 14.857-10.857 25.714t-25.714 10.857h-73.143q-14.857 0-25.714-10.857t-10.857-25.714v-286.857l-108 108q-10.857 10.857-25.714 10.857t-25.714-10.857l-52-52q-10.286-10.286-10.286-25.714t10.286-25.714l258.857-258.857q10.286-10.286 25.714-10.286t25.714 10.286l258.857 258.857q10.286 10.286 10.286 25.714zM877.714 384q0-119.429-58.857-220.286t-159.714-159.714-220.286-58.857-220.286 58.857-159.714 159.714-58.857 220.286 58.857 220.286 159.714 159.714 220.286 58.857 220.286-58.857 159.714-159.714 58.857-220.286z" />
<glyph unicode="&#xf0d7;" glyph-name="caret-down" horiz-adv-x="585" d="M585.143 493.714q0-14.857-10.857-25.714l-256-256q-10.857-10.857-25.714-10.857t-25.714 10.857l-256 256q-10.857 10.857-10.857 25.714t10.857 25.714 25.714 10.857h512q14.857 0 25.714-10.857t10.857-25.714z" />
<glyph unicode="&#xf0d8;" glyph-name="caret-up" horiz-adv-x="585" d="M585.143 201.143q0-14.857-10.857-25.714t-25.714-10.857h-512q-14.857 0-25.714 10.857t-10.857 25.714 10.857 25.714l256 256q10.857 10.857 25.714 10.857t25.714-10.857l256-256q10.857-10.857 10.857-25.714z" />
<glyph unicode="&#xf0d9;" glyph-name="caret-left" horiz-adv-x="366" d="M365.714 640v-512q0-14.857-10.857-25.714t-25.714-10.857-25.714 10.857l-256 256q-10.857 10.857-10.857 25.714t10.857 25.714l256 256q10.857 10.857 25.714 10.857t25.714-10.857 10.857-25.714z" />
<glyph unicode="&#xf0da;" glyph-name="caret-right" horiz-adv-x="366" d="M329.143 384q0-14.857-10.857-25.714l-256-256q-10.857-10.857-25.714-10.857t-25.714 10.857-10.857 25.714v512q0 14.857 10.857 25.714t25.714 10.857 25.714-10.857l256-256q10.857-10.857 10.857-25.714z" />
<glyph unicode="&#xf0dc;" glyph-name="sort" horiz-adv-x="585" d="M585.143 274.286q0-14.857-10.857-25.714l-256-256q-10.857-10.857-25.714-10.857t-25.714 10.857l-256 256q-10.857 10.857-10.857 25.714t10.857 25.714 25.714 10.857h512q14.857 0 25.714-10.857t10.857-25.714zM585.143 493.714q0-14.857-10.857-25.714t-25.714-10.857h-512q-14.857 0-25.714 10.857t-10.857 25.714 10.857 25.714l256 256q10.857 10.857 25.714 10.857t25.714-10.857l256-256q10.857-10.857 10.857-25.714z" />
<glyph unicode="&#xf0dd;" glyph-name="sort-desc" horiz-adv-x="585" d="M585.143 274.286q0-14.857-10.857-25.714l-256-256q-10.857-10.857-25.714-10.857t-25.714 10.857l-256 256q-10.857 10.857-10.857 25.714t10.857 25.714 25.714 10.857h512q14.857 0 25.714-10.857t10.857-25.714z" />
<glyph unicode="&#xf0de;" glyph-name="sort-asc" horiz-adv-x="585" d="M585.143 493.714q0-14.857-10.857-25.714t-25.714-10.857h-512q-14.857 0-25.714 10.857t-10.857 25.714 10.857 25.714l256 256q10.857 10.857 25.714 10.857t25.714-10.857l256-256q10.857-10.857 10.857-25.714z" />
<glyph unicode="&#xf0e0;" glyph-name="envelope" d="M1024 490.286v-453.714q0-37.714-26.857-64.571t-64.571-26.857h-841.143q-37.714 0-64.571 26.857t-26.857 64.571v453.714q25.143-28 57.714-49.714 206.857-140.571 284-197.143 32.571-24 52.857-37.429t54-27.429 62.857-14h1.143q29.143 0 62.857 14t54 27.429 52.857 37.429q97.143 70.286 284.571 197.143 32.571 22.286 57.143 49.714zM1024 658.286q0-45.143-28-86.286t-69.714-70.286q-214.857-149.143-267.429-185.714-5.714-4-24.286-17.429t-30.857-21.714-29.714-18.571-32.857-15.429-28.571-5.143h-1.143q-13.143 0-28.571 5.143t-32.857 15.429-29.714 18.571-30.857 21.714-24.286 17.429q-52 36.571-149.714 104.286t-117.143 81.429q-35.429 24-66.857 66t-31.429 78q0 44.571 23.714 74.286t67.714 29.714h841.143q37.143 0 64.286-26.857t27.143-64.571z" />
<glyph unicode="&#xf0e5;" glyph-name="comment-o" d="M512 676.571q-116.571 0-218-39.714t-161.143-107.143-59.714-145.714q0-64 40.857-122t115.143-100.286l49.714-28.571-15.429-54.857q-13.714-52-40-98.286 86.857 36 157.143 97.714l24.571 21.714 32.571-3.429q39.429-4.571 74.286-4.571 116.571 0 218 39.714t161.143 107.143 59.714 145.714-59.714 145.714-161.143 107.143-218 39.714zM1024 384q0-99.429-68.571-183.714t-186.286-133.143-257.143-48.857q-40 0-82.857 4.571-113.143-100-262.857-138.286-28-8-65.143-12.571h-2.857q-8.571 0-15.429 6t-9.143 15.714v0.571q-1.714 2.286-0.286 6.857t1.143 5.714 2.571 5.429l3.429 5.143t4 4.857 4.571 5.143q4 4.571 17.714 19.714t19.714 21.714 17.714 22.571 18.571 29.143 15.429 33.714 14.857 43.429q-89.714 50.857-141.429 125.714t-51.714 160.571q0 99.429 68.571 183.714t186.286 133.143 257.143 48.857 257.143-48.857 186.286-133.143 68.571-183.714z" />
<glyph unicode="&#xf0e6;" glyph-name="comments-o" d="M402.286 676.571q-87.429 0-163.429-29.714t-120.857-80.571-44.857-109.143q0-46.857 30.286-90.286t85.143-75.429l55.429-32-20-48q19.429 11.429 35.429 22.286l25.143 17.714 30.286-5.714q44.571-8 87.429-8 87.429 0 163.429 29.714t120.857 80.571 44.857 109.143-44.857 109.143-120.857 80.571-163.429 29.714zM402.286 749.714q109.143 0 202-39.143t146.571-106.571 53.714-146.857-53.714-146.857-146.571-106.571-202-39.143q-49.143 0-100.571 9.143-70.857-50.286-158.857-73.143-20.571-5.143-49.143-9.143h-1.714q-6.286 0-11.714 4.571t-6.571 12q-0.571 1.714-0.571 3.714t0.286 3.714 1.143 3.429l1.429 2.857t2 3.143 2.286 2.857 2.571 2.857 2.286 2.571q2.857 3.429 13.143 14.286t14.857 16.857 12.857 16.571 14.286 22 11.714 25.143q-70.857 41.143-111.429 101.143t-40.571 128q0 79.429 53.714 146.857t146.571 106.571 202 39.143zM872 81.714q5.714-13.714 11.714-25.143t14.286-22 12.857-16.571 14.857-16.857 13.143-14.286q0.571-0.571 2.286-2.571t2.571-2.857 2.286-2.857 2-3.143l1.429-2.857t1.143-3.429 0.286-3.714-0.571-3.714q-1.714-8-7.429-12.571t-12.571-4q-28.571 4-49.143 9.143-88 22.857-158.857 73.143-51.429-9.143-100.571-9.143-154.857 0-269.714 75.429 33.143-2.286 50.286-2.286 92 0 176.571 25.714t150.857 73.714q71.429 52.571 109.714 121.143t38.286 145.143q0 44-13.143 86.857 73.714-40.571 116.571-101.714t42.857-131.429q0-68.571-40.571-128.286t-111.429-100.857z" />
<glyph unicode="&#xf0f3;" glyph-name="bell" d="M521.143-73.143q0 9.143-9.143 9.143-33.714 0-58 24.286t-24.286 58q0 9.143-9.143 9.143t-9.143-9.143q0-41.714 29.429-71.143t71.143-29.429q9.143 0 9.143 9.143zM987.429 91.429q0-29.714-21.714-51.429t-51.429-21.714h-256q0-60.571-42.857-103.429t-103.429-42.857-103.429 42.857-42.857 103.429h-256q-29.714 0-51.429 21.714t-21.714 51.429q28.571 24 52 50.286t48.571 68.286 42.571 90.571 28.571 117.714 11.143 148.571q0 86.857 66.857 161.429t175.429 90.571q-4.571 10.857-4.571 22.286 0 22.857 16 38.857t38.857 16 38.857-16 16-38.857q0-11.429-4.571-22.286 108.571-16 175.429-90.571t66.857-161.429q0-79.429 11.143-148.571t28.571-117.714 42.571-90.571 48.571-68.286 52-50.286z" />
<glyph unicode="&#xf0f6;" glyph-name="file-text-o" d="M838.857 678.857q16-16 27.429-43.429t11.429-50.286v-658.286q0-22.857-16-38.857t-38.857-16h-768q-22.857 0-38.857 16t-16 38.857v914.286q0 22.857 16 38.857t38.857 16h512q22.857 0 50.286-11.429t43.429-27.429zM585.143 818.286v-214.857h214.857q-5.714 16.571-12.571 23.429l-178.857 178.857q-6.857 6.857-23.429 12.571zM804.571-54.857v585.143h-237.714q-22.857 0-38.857 16t-16 38.857v237.714h-438.857v-877.714h731.429zM219.429 438.857q0 8 5.143 13.143t13.143 5.143h402.286q8 0 13.143-5.143t5.143-13.143v-36.571q0-8-5.143-13.143t-13.143-5.143h-402.286q-8 0-13.143 5.143t-5.143 13.143v36.571zM640 310.857q8 0 13.143-5.143t5.143-13.143v-36.571q0-8-5.143-13.143t-13.143-5.143h-402.286q-8 0-13.143 5.143t-5.143 13.143v36.571q0 8 5.143 13.143t13.143 5.143h402.286zM640 164.571q8 0 13.143-5.143t5.143-13.143v-36.571q0-8-5.143-13.143t-13.143-5.143h-402.286q-8 0-13.143 5.143t-5.143 13.143v36.571q0 8 5.143 13.143t13.143 5.143h402.286z" />
<glyph unicode="&#xf100;" glyph-name="angle-double-left" horiz-adv-x="585" d="M358.286 109.714q0-7.429-5.714-13.143l-28.571-28.571q-5.714-5.714-13.143-5.714t-13.143 5.714l-266.286 266.286q-5.714 5.714-5.714 13.143t5.714 13.143l266.286 266.286q5.714 5.714 13.143 5.714t13.143-5.714l28.571-28.571q5.714-5.714 5.714-13.143t-5.714-13.143l-224.571-224.571 224.571-224.571q5.714-5.714 5.714-13.143zM577.714 109.714q0-7.429-5.714-13.143l-28.571-28.571q-5.714-5.714-13.143-5.714t-13.143 5.714l-266.286 266.286q-5.714 5.714-5.714 13.143t5.714 13.143l266.286 266.286q5.714 5.714 13.143 5.714t13.143-5.714l28.571-28.571q5.714-5.714 5.714-13.143t-5.714-13.143l-224.571-224.571 224.571-224.571q5.714-5.714 5.714-13.143z" />
<glyph unicode="&#xf101;" glyph-name="angle-double-right" horiz-adv-x="585" d="M340 347.429q0-7.429-5.714-13.143l-266.286-266.286q-5.714-5.714-13.143-5.714t-13.143 5.714l-28.571 28.571q-5.714 5.714-5.714 13.143t5.714 13.143l224.571 224.571-224.571 224.571q-5.714 5.714-5.714 13.143t5.714 13.143l28.571 28.571q5.714 5.714 13.143 5.714t13.143-5.714l266.286-266.286q5.714-5.714 5.714-13.143zM559.429 347.429q0-7.429-5.714-13.143l-266.286-266.286q-5.714-5.714-13.143-5.714t-13.143 5.714l-28.571 28.571q-5.714 5.714-5.714 13.143t5.714 13.143l224.571 224.571-224.571 224.571q-5.714 5.714-5.714 13.143t5.714 13.143l28.571 28.571q5.714 5.714 13.143 5.714t13.143-5.714l266.286-266.286q5.714-5.714 5.714-13.143z" />
<glyph unicode="&#xf102;" glyph-name="angle-double-up" horiz-adv-x="658" d="M614.286 146.286q0-7.429-5.714-13.143l-28.571-28.571q-5.714-5.714-13.143-5.714t-13.143 5.714l-224.571 224.571-224.571-224.571q-5.714-5.714-13.143-5.714t-13.143 5.714l-28.571 28.571q-5.714 5.714-5.714 13.143t5.714 13.143l266.286 266.286q5.714 5.714 13.143 5.714t13.143-5.714l266.286-266.286q5.714-5.714 5.714-13.143zM614.286 365.714q0-7.429-5.714-13.143l-28.571-28.571q-5.714-5.714-13.143-5.714t-13.143 5.714l-224.571 224.571-224.571-224.571q-5.714-5.714-13.143-5.714t-13.143 5.714l-28.571 28.571q-5.714 5.714-5.714 13.143t5.714 13.143l266.286 266.286q5.714 5.714 13.143 5.714t13.143-5.714l266.286-266.286q5.714-5.714 5.714-13.143z" />
<glyph unicode="&#xf103;" glyph-name="angle-double-down" horiz-adv-x="658" d="M614.286 402.286q0-7.429-5.714-13.143l-266.286-266.286q-5.714-5.714-13.143-5.714t-13.143 5.714l-266.286 266.286q-5.714 5.714-5.714 13.143t5.714 13.143l28.571 28.571q5.714 5.714 13.143 5.714t13.143-5.714l224.571-224.571 224.571 224.571q5.714 5.714 13.143 5.714t13.143-5.714l28.571-28.571q5.714-5.714 5.714-13.143zM614.286 621.714q0-7.429-5.714-13.143l-266.286-266.286q-5.714-5.714-13.143-5.714t-13.143 5.714l-266.286 266.286q-5.714 5.714-5.714 13.143t5.714 13.143l28.571 28.571q5.714 5.714 13.143 5.714t13.143-5.714l224.571-224.571 224.571 224.571q5.714 5.714 13.143 5.714t13.143-5.714l28.571-28.571q5.714-5.714 5.714-13.143z" />
<glyph unicode="&#xf104;" glyph-name="angle-left" horiz-adv-x="366" d="M358.286 585.143q0-7.429-5.714-13.143l-224.571-224.571 224.571-224.571q5.714-5.714 5.714-13.143t-5.714-13.143l-28.571-28.571q-5.714-5.714-13.143-5.714t-13.143 5.714l-266.286 266.286q-5.714 5.714-5.714 13.143t5.714 13.143l266.286 266.286q5.714 5.714 13.143 5.714t13.143-5.714l28.571-28.571q5.714-5.714 5.714-13.143z" />
<glyph unicode="&#xf105;" glyph-name="angle-right" horiz-adv-x="366" d="M340 347.429q0-7.429-5.714-13.143l-266.286-266.286q-5.714-5.714-13.143-5.714t-13.143 5.714l-28.571 28.571q-5.714 5.714-5.714 13.143t5.714 13.143l224.571 224.571-224.571 224.571q-5.714 5.714-5.714 13.143t5.714 13.143l28.571 28.571q5.714 5.714 13.143 5.714t13.143-5.714l266.286-266.286q5.714-5.714 5.714-13.143z" />
<glyph unicode="&#xf106;" glyph-name="angle-top" horiz-adv-x="658" d="M614.286 219.429q0-7.429-5.714-13.143l-28.571-28.571q-5.714-5.714-13.143-5.714t-13.143 5.714l-224.571 224.571-224.571-224.571q-5.714-5.714-13.143-5.714t-13.143 5.714l-28.571 28.571q-5.714 5.714-5.714 13.143t5.714 13.143l266.286 266.286q5.714 5.714 13.143 5.714t13.143-5.714l266.286-266.286q5.714-5.714 5.714-13.143z" />
<glyph unicode="&#xf107;" glyph-name="angle-down" horiz-adv-x="658" d="M614.286 475.429q0-7.429-5.714-13.143l-266.286-266.286q-5.714-5.714-13.143-5.714t-13.143 5.714l-266.286 266.286q-5.714 5.714-5.714 13.143t5.714 13.143l28.571 28.571q5.714 5.714 13.143 5.714t13.143-5.714l224.571-224.571 224.571 224.571q5.714 5.714 13.143 5.714t13.143-5.714l28.571-28.571q5.714-5.714 5.714-13.143z" />
<glyph unicode="&#xf108;" glyph-name="desktop" horiz-adv-x="1097" d="M1024 329.143v475.429q0 7.429-5.429 12.857t-12.857 5.429h-914.286q-7.429 0-12.857-5.429t-5.429-12.857v-475.429q0-7.429 5.429-12.857t12.857-5.429h914.286q7.429 0 12.857 5.429t5.429 12.857zM1097.143 804.571v-621.714q0-37.714-26.857-64.571t-64.571-26.857h-310.857q0-21.143 9.143-44.286t18.286-40.571 9.143-24.857q0-14.857-10.857-25.714t-25.714-10.857h-292.571q-14.857 0-25.714 10.857t-10.857 25.714q0 8 9.143 25.143t18.286 40 9.143 44.571h-310.857q-37.714 0-64.571 26.857t-26.857 64.571v621.714q0 37.714 26.857 64.571t64.571 26.857h914.286q37.714 0 64.571-26.857t26.857-64.571z" />
<glyph unicode="&#xf109;" glyph-name="laptop" horiz-adv-x="1097" d="M237.714 164.571q-37.714 0-64.571 26.857t-26.857 64.571v402.286q0 37.714 26.857 64.571t64.571 26.857h621.714q37.714 0 64.571-26.857t26.857-64.571v-402.286q0-37.714-26.857-64.571t-64.571-26.857h-621.714zM219.429 658.286v-402.286q0-7.429 5.429-12.857t12.857-5.429h621.714q7.429 0 12.857 5.429t5.429 12.857v402.286q0 7.429-5.429 12.857t-12.857 5.429h-621.714q-7.429 0-12.857-5.429t-5.429-12.857zM1005.714 128h91.429v-54.857q0-22.857-26.857-38.857t-64.571-16h-914.286q-37.714 0-64.571 16t-26.857 38.857v54.857h1005.714zM594.286 73.143q9.143 0 9.143 9.143t-9.143 9.143h-91.429q-9.143 0-9.143-9.143t9.143-9.143h91.429z" />
<glyph unicode="&#xf10a;" glyph-name="tablet" horiz-adv-x="658" d="M365.714 91.429q0 14.857-10.857 25.714t-25.714 10.857-25.714-10.857-10.857-25.714 10.857-25.714 25.714-10.857 25.714 10.857 10.857 25.714zM585.143 182.857v548.571q0 7.429-5.429 12.857t-12.857 5.429h-475.429q-7.429 0-12.857-5.429t-5.429-12.857v-548.571q0-7.429 5.429-12.857t12.857-5.429h475.429q7.429 0 12.857 5.429t5.429 12.857zM658.286 731.429v-621.714q0-37.714-26.857-64.571t-64.571-26.857h-475.429q-37.714 0-64.571 26.857t-26.857 64.571v621.714q0 37.714 26.857 64.571t64.571 26.857h475.429q37.714 0 64.571-26.857t26.857-64.571z" />
<glyph unicode="&#xf10b;" glyph-name="mobile" horiz-adv-x="439" d="M265.143 91.429q0 18.857-13.429 32.286t-32.286 13.429-32.286-13.429-13.429-32.286 13.429-32.286 32.286-13.429 32.286 13.429 13.429 32.286zM384 182.857v402.286q0 7.429-5.429 12.857t-12.857 5.429h-292.571q-7.429 0-12.857-5.429t-5.429-12.857v-402.286q0-7.429 5.429-12.857t12.857-5.429h292.571q7.429 0 12.857 5.429t5.429 12.857zM274.286 667.429q0 9.143-9.143 9.143h-91.429q-9.143 0-9.143-9.143t9.143-9.143h91.429q9.143 0 9.143 9.143zM438.857 676.571v-585.143q0-29.714-21.714-51.429t-51.429-21.714h-292.571q-29.714 0-51.429 21.714t-21.714 51.429v585.143q0 29.714 21.714 51.429t51.429 21.714h292.571q29.714 0 51.429-21.714t21.714-51.429z" />
<glyph unicode="&#xf114;" glyph-name="folder-o" horiz-adv-x="951" d="M877.714 146.286v402.286q0 22.857-16 38.857t-38.857 16h-402.286q-22.857 0-38.857 16t-16 38.857v36.571q0 22.857-16 38.857t-38.857 16h-182.857q-22.857 0-38.857-16t-16-38.857v-548.571q0-22.857 16-38.857t38.857-16h694.857q22.857 0 38.857 16t16 38.857zM950.857 548.571v-402.286q0-52.571-37.714-90.286t-90.286-37.714h-694.857q-52.571 0-90.286 37.714t-37.714 90.286v548.571q0 52.571 37.714 90.286t90.286 37.714h182.857q52.571 0 90.286-37.714t37.714-90.286v-18.286h384q52.571 0 90.286-37.714t37.714-90.286z" />
<glyph unicode="&#xf115;" glyph-name="folder-open-o" horiz-adv-x="1097" d="M1017.714 364q0 20-30.286 20h-621.714q-22.857 0-48.857-12.286t-40.857-30l-168-207.429q-10.286-13.714-10.286-22.857 0-20 30.286-20h621.714q22.857 0 49.143 12.571t40.571 30.286l168 207.429q10.286 12.571 10.286 22.286zM365.714 457.143h438.857v91.429q0 22.857-16 38.857t-38.857 16h-329.143q-22.857 0-38.857 16t-16 38.857v36.571q0 22.857-16 38.857t-38.857 16h-182.857q-22.857 0-38.857-16t-16-38.857v-487.429l146.286 180q25.143 30.286 66.286 50t80 19.714zM1090.857 364q0-35.429-26.286-68.571l-168.571-207.429q-24.571-30.286-66.286-50t-80-19.714h-621.714q-52.571 0-90.286 37.714t-37.714 90.286v548.571q0 52.571 37.714 90.286t90.286 37.714h182.857q52.571 0 90.286-37.714t37.714-90.286v-18.286h310.857q52.571 0 90.286-37.714t37.714-90.286v-91.429h109.714q30.857 0 56.571-14t38.286-40.286q8.571-18.286 8.571-38.857z" />
<glyph unicode="&#xf11c;" glyph-name="keyboard-o" horiz-adv-x="1097" d="M219.429 228.571v-54.857q0-9.143-9.143-9.143h-54.857q-9.143 0-9.143 9.143v54.857q0 9.143 9.143 9.143h54.857q9.143 0 9.143-9.143zM292.571 374.857v-54.857q0-9.143-9.143-9.143h-128q-9.143 0-9.143 9.143v54.857q0 9.143 9.143 9.143h128q9.143 0 9.143-9.143zM219.429 521.143v-54.857q0-9.143-9.143-9.143h-54.857q-9.143 0-9.143 9.143v54.857q0 9.143 9.143 9.143h54.857q9.143 0 9.143-9.143zM804.571 228.571v-54.857q0-9.143-9.143-9.143h-493.714q-9.143 0-9.143 9.143v54.857q0 9.143 9.143 9.143h493.714q9.143 0 9.143-9.143zM438.857 374.857v-54.857q0-9.143-9.143-9.143h-54.857q-9.143 0-9.143 9.143v54.857q0 9.143 9.143 9.143h54.857q9.143 0 9.143-9.143zM365.714 521.143v-54.857q0-9.143-9.143-9.143h-54.857q-9.143 0-9.143 9.143v54.857q0 9.143 9.143 9.143h54.857q9.143 0 9.143-9.143zM585.143 374.857v-54.857q0-9.143-9.143-9.143h-54.857q-9.143 0-9.143 9.143v54.857q0 9.143 9.143 9.143h54.857q9.143 0 9.143-9.143zM512 521.143v-54.857q0-9.143-9.143-9.143h-54.857q-9.143 0-9.143 9.143v54.857q0 9.143 9.143 9.143h54.857q9.143 0 9.143-9.143zM731.429 374.857v-54.857q0-9.143-9.143-9.143h-54.857q-9.143 0-9.143 9.143v54.857q0 9.143 9.143 9.143h54.857q9.143 0 9.143-9.143zM950.857 228.571v-54.857q0-9.143-9.143-9.143h-54.857q-9.143 0-9.143 9.143v54.857q0 9.143 9.143 9.143h54.857q9.143 0 9.143-9.143zM658.286 521.143v-54.857q0-9.143-9.143-9.143h-54.857q-9.143 0-9.143 9.143v54.857q0 9.143 9.143 9.143h54.857q9.143 0 9.143-9.143zM804.571 521.143v-54.857q0-9.143-9.143-9.143h-54.857q-9.143 0-9.143 9.143v54.857q0 9.143 9.143 9.143h54.857q9.143 0 9.143-9.143zM950.857 521.143v-201.143q0-9.143-9.143-9.143h-128q-9.143 0-9.143 9.143v54.857q0 9.143 9.143 9.143h64v137.143q0 9.143 9.143 9.143h54.857q9.143 0 9.143-9.143zM1024 91.429v512h-950.857v-512h950.857zM1097.143 603.429v-512q0-30.286-21.429-51.714t-51.714-21.429h-950.857q-30.286 0-51.714 21.429t-21.429 51.714v512q0 30.286 21.429 51.714t51.714 21.429h950.857q30.286 0 51.714-21.429t21.429-51.714z" />
<glyph unicode="&#xf11d;" glyph-name="flag-o" d="M950.857 298.857v352q-96.571-52-174.857-52-46.857 0-82.857 18.286-57.143 28-105.143 43.714t-101.714 15.714q-98.857 0-230.286-72.571v-342.286q140 64.571 247.429 64.571 31.429 0 59.143-4.286t56-14.857 44-17.714 47.143-22.571l16-8q25.143-12.571 57.714-12.571 68.571 0 167.429 52.571zM182.857 749.714q0-20-10-36.571t-26.571-26.286v-723.429q0-8-5.143-13.143t-13.143-5.143h-36.571q-8 0-13.143 5.143t-5.143 13.143v723.429q-16.571 9.714-26.571 26.286t-10 36.571q0 30.286 21.429 51.714t51.714 21.429 51.714-21.429 21.429-51.714zM1024 713.143v-436q0-22.286-20-32.571-5.714-2.857-9.714-5.143-124.571-66.286-210.857-66.286-50.286 0-90.286 20l-16 8q-36.571 18.857-56.571 27.429t-52 16.571-65.143 8q-58.286 0-134.571-25.143t-130.571-58.286q-8.571-5.143-18.857-5.143-9.143 0-18.286 4.571-18.286 10.857-18.286 32v424q0 20 17.714 31.429 20 12 44.857 24.286t65.143 29.714 87.143 28.286 88.571 10.857q64 0 119.429-17.714t119.429-49.143q21.714-10.857 50.857-10.857 69.714 0 177.143 64 12.571 6.857 17.714 9.714 17.714 9.143 35.429-1.143 17.714-11.429 17.714-31.429z" />
<glyph unicode="&#xf123;" glyph-name="star-half-o" horiz-adv-x="951" d="M677.714 349.143l146.857 142.857-241.143 35.429-17.143 34.286-90.857 184v-550.286l33.714-17.714 181.714-96-34.286 202.857-6.857 37.714zM936 498.857l-207.429-202.286 49.143-285.714q2.857-18.857-3.429-29.429t-19.429-10.571q-9.714 0-22.857 6.857l-256.571 134.857-256.571-134.857q-13.143-6.857-22.857-6.857-13.143 0-19.429 10.571t-3.429 29.429l49.143 285.714-208 202.286q-18.286 18.286-13.143 34t30.857 19.714l286.857 41.714 128.571 260q11.429 23.429 28 23.429 16 0 28-23.429l128.571-260 286.857-41.714q25.714-4 30.857-19.714t-13.714-34z" />
<glyph unicode="&#xf137;" glyph-name="chevron-circle-left" d="M519.429 98.857l58.286 58.286q10.857 10.857 10.857 25.714t-10.857 25.714l-175.429 175.429 175.429 175.429q10.857 10.857 10.857 25.714t-10.857 25.714l-58.286 58.286q-10.857 10.857-25.714 10.857t-25.714-10.857l-259.429-259.429q-10.857-10.857-10.857-25.714t10.857-25.714l259.429-259.429q10.857-10.857 25.714-10.857t25.714 10.857zM877.714 384q0-119.429-58.857-220.286t-159.714-159.714-220.286-58.857-220.286 58.857-159.714 159.714-58.857 220.286 58.857 220.286 159.714 159.714 220.286 58.857 220.286-58.857 159.714-159.714 58.857-220.286z" />
<glyph unicode="&#xf138;" glyph-name="chevron-circle-right" d="M409.714 98.857l259.429 259.429q10.857 10.857 10.857 25.714t-10.857 25.714l-259.429 259.429q-10.857 10.857-25.714 10.857t-25.714-10.857l-58.286-58.286q-10.857-10.857-10.857-25.714t10.857-25.714l175.429-175.429-175.429-175.429q-10.857-10.857-10.857-25.714t10.857-25.714l58.286-58.286q10.857-10.857 25.714-10.857t25.714 10.857zM877.714 384q0-119.429-58.857-220.286t-159.714-159.714-220.286-58.857-220.286 58.857-159.714 159.714-58.857 220.286 58.857 220.286 159.714 159.714 220.286 58.857 220.286-58.857 159.714-159.714 58.857-220.286z" />
<glyph unicode="&#xf139;" glyph-name="chevron-circle-up" d="M665.714 245.143l58.286 58.286q10.857 10.857 10.857 25.714t-10.857 25.714l-259.429 259.429q-10.857 10.857-25.714 10.857t-25.714-10.857l-259.429-259.429q-10.857-10.857-10.857-25.714t10.857-25.714l58.286-58.286q10.857-10.857 25.714-10.857t25.714 10.857l175.429 175.429 175.429-175.429q10.857-10.857 25.714-10.857t25.714 10.857zM877.714 384q0-119.429-58.857-220.286t-159.714-159.714-220.286-58.857-220.286 58.857-159.714 159.714-58.857 220.286 58.857 220.286 159.714 159.714 220.286 58.857 220.286-58.857 159.714-159.714 58.857-220.286z" />
<glyph unicode="&#xf13a;" glyph-name="chevron-circle-down" d="M464.571 153.714l259.429 259.429q10.857 10.857 10.857 25.714t-10.857 25.714l-58.286 58.286q-10.857 10.857-25.714 10.857t-25.714-10.857l-175.429-175.429-175.429 175.429q-10.857 10.857-25.714 10.857t-25.714-10.857l-58.286-58.286q-10.857-10.857-10.857-25.714t10.857-25.714l259.429-259.429q10.857-10.857 25.714-10.857t25.714 10.857zM877.714 384q0-119.429-58.857-220.286t-159.714-159.714-220.286-58.857-220.286 58.857-159.714 159.714-58.857 220.286 58.857 220.286 159.714 159.714 220.286 58.857 220.286-58.857 159.714-159.714 58.857-220.286z" />
<glyph unicode="&#xf147;" glyph-name="minus-square-o" horiz-adv-x="805" d="M658.286 438.857v-36.571q0-8-5.143-13.143t-13.143-5.143h-475.429q-8 0-13.143 5.143t-5.143 13.143v36.571q0 8 5.143 13.143t13.143 5.143h475.429q8 0 13.143-5.143t5.143-13.143zM731.429 182.857v475.429q0 37.714-26.857 64.571t-64.571 26.857h-475.429q-37.714 0-64.571-26.857t-26.857-64.571v-475.429q0-37.714 26.857-64.571t64.571-26.857h475.429q37.714 0 64.571 26.857t26.857 64.571zM804.571 658.286v-475.429q0-68-48.286-116.286t-116.286-48.286h-475.429q-68 0-116.286 48.286t-48.286 116.286v475.429q0 68 48.286 116.286t116.286 48.286h475.429q68 0 116.286-48.286t48.286-116.286z" />
<glyph unicode="&#xf175;" glyph-name="long-arrow-down" horiz-adv-x="439" d="M437.143 153.714q4.571-10.857-2.857-20l-200-219.429q-5.714-5.714-13.143-5.714-8 0-13.714 5.714l-202.857 219.429q-7.429 9.143-2.857 20 5.143 10.857 16.571 10.857h128v713.143q0 8 5.143 13.143t13.143 5.143h109.714q8 0 13.143-5.143t5.143-13.143v-713.143h128q12 0 16.571-10.857z" />
<glyph unicode="&#xf176;" glyph-name="long-arrow-up" horiz-adv-x="439" d="M437.143 614.286q-5.143-10.857-16.571-10.857h-128v-713.143q0-8-5.143-13.143t-13.143-5.143h-109.714q-8 0-13.143 5.143t-5.143 13.143v713.143h-128q-12 0-16.571 10.857t2.857 20l200 219.429q5.714 5.714 13.143 5.714 8 0 13.714-5.714l202.857-219.429q7.429-9.143 2.857-20z" />
<glyph unicode="&#xf177;" glyph-name="long-arrow-left" d="M1024 438.857v-109.714q0-8-5.143-13.143t-13.143-5.143h-713.143v-128q0-12-10.857-16.571t-20 2.857l-219.429 200q-5.714 5.714-5.714 13.143 0 8 5.714 13.714l219.429 202.286q9.143 8 20 3.429 10.857-5.143 10.857-16.571v-128h713.143q8 0 13.143-5.143t5.143-13.143z" />
<glyph unicode="&#xf178;" glyph-name="long-arrow-right" d="M987.429 385.714q0-8-5.714-13.714l-219.429-202.286q-9.143-8-20-3.429-10.857 5.143-10.857 16.571v128h-713.143q-8 0-13.143 5.143t-5.143 13.143v109.714q0 8 5.143 13.143t13.143 5.143h713.143v128q0 12 10.857 16.571t20-2.857l219.429-200q5.714-5.714 5.714-13.143z" />
<glyph unicode="&#xf179;" glyph-name="apple" horiz-adv-x="805" d="M796 201.714q-22.286-71.429-70.286-142.857-73.714-112-146.857-112-28 0-80 18.286-49.143 18.286-86.286 18.286-34.857 0-81.143-18.857-46.286-19.429-75.429-19.429-86.857 0-172 148-84 149.143-84 287.429 0 130.286 64.571 213.714 64 82.286 162.286 82.286 41.143 0 101.143-17.143 59.429-17.143 78.857-17.143 25.714 0 81.714 19.429 58.286 19.429 98.857 19.429 68 0 121.714-37.143 29.714-20.571 59.429-57.143-45.143-38.286-65.143-67.429-37.143-53.714-37.143-118.286 0-70.857 39.429-127.429t90.286-72zM581.143 872q0-34.857-16.571-77.714-17.143-42.857-53.143-78.857-30.857-30.857-61.714-41.143-21.143-6.286-59.429-9.714 1.714 85.143 44.571 146.857 42.286 61.143 142.857 84.571 0.571-1.714 1.429-6.286t1.429-6.286q0-2.286 0.286-5.714t0.286-5.714z" />
<glyph unicode="&#xf17a;" glyph-name="windows" horiz-adv-x="951" d="M389.714 321.143v-372l-389.714 53.714v318.286h389.714zM389.714 745.714v-376.571h-389.714v322.857zM950.857 321.143v-449.143l-518.286 71.429v377.714h518.286zM950.857 822.857v-453.714h-518.286v382.286z" />
<glyph unicode="&#xf17b;" glyph-name="android" horiz-adv-x="805" d="M281.714 620q9.143 0 15.714 6.571t6.571 15.714-6.571 15.714-15.714 6.571-15.429-6.571-6.286-15.714 6.286-15.714 15.429-6.571zM522.857 620q9.143 0 15.429 6.571t6.286 15.714-6.286 15.714-15.429 6.571-15.714-6.571-6.571-15.714 6.571-15.714 15.714-6.571zM58.857 514.857q24 0 41.143-17.143t17.143-41.143v-245.714q0-24.571-16.857-41.714t-41.429-17.143-41.714 17.143-17.143 41.714v245.714q0 24 17.143 41.143t41.714 17.143zM664.571 504v-380.571q0-26.286-18.286-44.571t-44-18.286h-42.857v-129.714q0-24.571-17.143-41.714t-41.714-17.143-41.714 17.143-17.143 41.714v129.714h-78.857v-129.714q0-24.571-17.143-41.714t-41.714-17.143q-24 0-41.143 17.143t-17.143 41.714l-0.571 129.714h-42.286q-26.286 0-44.571 18.286t-18.286 44.571v380.571h524.571zM532 735.429q61.143-31.429 97.714-87.714t36.571-123.143h-528.571q0 66.857 36.571 123.143t98.286 87.714l-40.571 74.857q-4 7.429 2.857 11.429 7.429 3.429 11.429-3.429l41.143-75.429q54.286 24 114.857 24t114.857-24l41.143 75.429q4 6.857 11.429 3.429 6.857-4 2.857-11.429zM804.571 456.571v-245.714q0-24.571-17.143-41.714t-41.714-17.143q-24 0-41.143 17.143t-17.143 41.714v245.714q0 24.571 17.143 41.429t41.143 16.857q24.571 0 41.714-16.857t17.143-41.429z" />
<glyph unicode="&#xf18a;" glyph-name="sina" d="M385.714 162.286q12 19.429 6.286 39.429t-25.714 28.571q-19.429 8-41.714 0.571t-34.286-26.286q-12.571-19.429-7.429-39.143t24.571-28.857 42.571-1.429 35.714 27.143zM439.429 231.429q4.571 7.429 2 15.143t-10 10.571q-8 2.857-16.286-0.286t-12.286-10.571q-9.714-17.714 7.429-25.714 8-2.857 16.571 0.286t12.571 10.571zM538.857 170.286q-25.714-58.286-90.286-85.714t-128-6.857q-61.143 19.429-84.286 72.286t3.714 107.143q26.857 53.143 86.571 79.429t120.286 10.857q63.429-16.571 90.571-68.286t1.429-108.857zM717.143 261.714q-5.143 54.857-50.857 97.143t-119.143 62.286-156.857 12q-127.429-13.143-211.143-80.857t-75.714-151.143q5.143-54.857 50.857-97.143t119.143-62.286 156.857-12q127.429 13.143 211.143 80.857t75.714 151.143zM893.143 259.429q0-38.857-21.143-79.714t-62.286-78.286-96.286-67.143-129.143-47.429-154.571-17.714-157.143 19.143-137.429 53.143-98 86.286-37.143 114q0 65.714 39.714 140t112.857 147.429q96.571 96.571 195.143 134.857t140.857-4q37.143-36.571 11.429-119.429-2.286-8-0.571-11.429t5.714-4 8.286 0.286 7.714 2l3.429 1.143q79.429 33.714 140.571 33.714t87.429-34.857q25.714-36 0-101.714-1.143-7.429-2.571-11.429t2.571-7.143 6.857-4.286 9.714-3.429q32.571-10.286 58.857-26.857t45.714-46.571 19.429-66.571zM850.857 616q24-26.857 31.143-62t-3.714-67.143q-4.571-13.143-16.857-19.429t-25.429-2.286q-13.143 4.571-19.429 16.857t-2.286 25.429q11.429 36-13.714 63.429t-61.143 20q-13.714-2.857-25.714 4.571t-14.286 21.143q-2.857 13.714 4.571 25.429t21.143 14.571q34.286 7.429 68-3.143t57.714-37.429zM954.286 709.143q49.714-54.857 64.286-127.143t-7.714-138q-5.143-15.429-19.429-22.857t-29.714-2.286-22.857 19.429-2.857 29.714q16 46.857 5.714 98.286t-45.714 90.286q-35.429 39.429-84.571 54.571t-98.857 4.857q-16-3.429-29.714 5.429t-17.143 24.857 5.429 29.429 24.857 16.857q70.286 14.857 139.429-6.571t118.857-76.857z" />
<glyph unicode="&#xf18b;" glyph-name="renren" d="M647.429-1.143q-97.714-53.714-210.286-53.714-112 0-209.714 53.714 78.857 49.714 134.571 120.571t75.143 153.143q20-82.286 75.714-153.143t134.571-120.571zM364.571 814.857v-277.143q0-144-72.286-262.571t-188.857-175.143q-103.429 122.857-103.429 282.857 0 106.857 47.714 199.714t131.143 154 185.714 78.286zM877.714 382.857q0-160-103.429-282.857-116.571 56.571-188.857 175.143t-72.286 262.571v277.143q102.286-17.143 185.714-78.286t131.143-154 47.714-199.714z" />
<glyph unicode="&#xf196;" glyph-name="plus-square-o" horiz-adv-x="805" d="M658.286 438.857v-36.571q0-8-5.143-13.143t-13.143-5.143h-201.143v-201.143q0-8-5.143-13.143t-13.143-5.143h-36.571q-8 0-13.143 5.143t-5.143 13.143v201.143h-201.143q-8 0-13.143 5.143t-5.143 13.143v36.571q0 8 5.143 13.143t13.143 5.143h201.143v201.143q0 8 5.143 13.143t13.143 5.143h36.571q8 0 13.143-5.143t5.143-13.143v-201.143h201.143q8 0 13.143-5.143t5.143-13.143zM731.429 182.857v475.429q0 37.714-26.857 64.571t-64.571 26.857h-475.429q-37.714 0-64.571-26.857t-26.857-64.571v-475.429q0-37.714 26.857-64.571t64.571-26.857h475.429q37.714 0 64.571 26.857t26.857 64.571zM804.571 658.286v-475.429q0-68-48.286-116.286t-116.286-48.286h-475.429q-68 0-116.286 48.286t-48.286 116.286v475.429q0 68 48.286 116.286t116.286 48.286h475.429q68 0 116.286-48.286t48.286-116.286z" />
<glyph unicode="&#xf1c1;" glyph-name="file-pdf-o" d="M838.857 678.857q16-16 27.429-43.429t11.429-50.286v-658.286q0-22.857-16-38.857t-38.857-16h-768q-22.857 0-38.857 16t-16 38.857v914.286q0 22.857 16 38.857t38.857 16h512q22.857 0 50.286-11.429t43.429-27.429zM585.143 818.286v-214.857h214.857q-5.714 16.571-12.571 23.429l-178.857 178.857q-6.857 6.857-23.429 12.571zM804.571-54.857v585.143h-237.714q-22.857 0-38.857 16t-16 38.857v237.714h-438.857v-877.714h731.429zM510.857 284q18.857-14.857 48-32 33.714 4 66.857 4 84 0 101.143-28 9.143-12.571 1.143-29.714 0-0.571-0.571-1.143l-1.143-1.143v-0.571q-3.429-21.714-40.571-21.714-27.429 0-65.714 11.429t-74.286 30.286q-126.286-13.714-224-47.429-87.429-149.714-138.286-149.714-8.571 0-16 4l-13.714 6.857q-0.571 0.571-3.429 2.857-5.714 5.714-3.429 20.571 5.143 22.857 32 52.286t75.429 55.143q8 5.143 13.143-3.429 1.143-1.143 1.143-2.286 29.714 48.571 61.143 112.571 38.857 77.714 59.429 149.714-13.714 46.857-17.429 91.143t3.714 72.857q6.286 22.857 24 22.857h12.571q13.143 0 20-8.571 10.286-12 5.143-38.857-1.143-3.429-2.286-4.571 0.571-1.714 0.571-4.571v-17.143q-1.143-70.286-8-109.714 31.429-93.714 83.429-136zM181.714 49.143q29.714 13.714 78.286 90.286-29.143-22.857-50-48t-28.286-42.286zM409.143 574.857q-8.571-24-1.143-75.429 0.571 4 4 25.143 0 1.714 4 24.571 0.571 2.286 2.286 4.571-0.571 0.571-0.571 1.143t-0.286 0.857-0.286 0.857q-0.571 12.571-7.429 20.571 0-0.571-0.571-1.143v-1.143zM338.286 197.143q77.143 30.857 162.286 46.286-1.143 0.571-7.429 5.429t-9.143 7.714q-43.429 38.286-72.571 100.571-15.429-49.143-47.429-112.571-17.143-32-25.714-47.429zM707.429 206.286q-13.714 13.714-80 13.714 43.429-16 70.857-16 8 0 10.286 0.571 0 0.571-1.143 1.714z" />
<glyph unicode="&#xf1c2;" glyph-name="file-word-o" d="M838.857 678.857q16-16 27.429-43.429t11.429-50.286v-658.286q0-22.857-16-38.857t-38.857-16h-768q-22.857 0-38.857 16t-16 38.857v914.286q0 22.857 16 38.857t38.857 16h512q22.857 0 50.286-11.429t43.429-27.429zM585.143 818.286v-214.857h214.857q-5.714 16.571-12.571 23.429l-178.857 178.857q-6.857 6.857-23.429 12.571zM804.571-54.857v585.143h-237.714q-22.857 0-38.857 16t-16 38.857v237.714h-438.857v-877.714h731.429zM133.143 457.143v-61.143h40l93.714-377.714h90.857l73.143 277.143q4 11.429 5.714 26.286 1.143 9.143 1.143 13.714h2.286l1.714-13.714q0.571-1.714 2-11.429t3.143-14.857l73.143-277.143h90.857l93.714 377.714h40v61.143h-171.429v-61.143h51.429l-56.571-250.286q-2.857-11.429-4-26.286l-1.143-12h-2.286l-1.714 12q-0.571 2.857-2.286 12t-2.857 14.286l-82.286 311.429h-65.143l-82.286-311.429q-1.143-5.143-2.571-14t-2-12.286l-2.286-12h-2.286l-1.143 12q-1.143 14.857-4 26.286l-56.571 250.286h51.429v61.143h-171.429z" />
<glyph unicode="&#xf1c3;" glyph-name="file-excel-o" d="M838.857 678.857q16-16 27.429-43.429t11.429-50.286v-658.286q0-22.857-16-38.857t-38.857-16h-768q-22.857 0-38.857 16t-16 38.857v914.286q0 22.857 16 38.857t38.857 16h512q22.857 0 50.286-11.429t43.429-27.429zM585.143 818.286v-214.857h214.857q-5.714 16.571-12.571 23.429l-178.857 178.857q-6.857 6.857-23.429 12.571zM804.571-54.857v585.143h-237.714q-22.857 0-38.857 16t-16 38.857v237.714h-438.857v-877.714h731.429zM245.143 78.857v-60.571h160.571v60.571h-42.857l58.857 92q2.857 4 5.714 9.429t4.286 7.714 2 2.286h1.143q0.571-2.286 2.857-5.714 1.143-2.286 2.571-4.286t3.429-4.571 3.714-4.857l61.143-92h-43.429v-60.571h166.286v60.571h-38.857l-109.714 156 111.429 161.143h38.286v61.143h-159.429v-61.143h42.286l-58.857-90.857q-2.286-4-5.714-9.429t-5.143-7.714l-1.143-1.714h-1.143q-0.571 2.286-2.857 5.714-3.429 6.286-9.714 13.143l-60.571 90.857h43.429v61.143h-165.714v-61.143h38.857l108-155.429-110.857-161.714h-38.857z" />
<glyph unicode="&#xf1c4;" glyph-name="file-ppt-o" d="M838.857 678.857q16-16 27.429-43.429t11.429-50.286v-658.286q0-22.857-16-38.857t-38.857-16h-768q-22.857 0-38.857 16t-16 38.857v914.286q0 22.857 16 38.857t38.857 16h512q22.857 0 50.286-11.429t43.429-27.429zM585.143 818.286v-214.857h214.857q-5.714 16.571-12.571 23.429l-178.857 178.857q-6.857 6.857-23.429 12.571zM804.571-54.857v585.143h-237.714q-22.857 0-38.857 16t-16 38.857v237.714h-438.857v-877.714h731.429zM237.714 78.857v-60.571h186.857v60.571h-53.143v95.429h78.286q43.429 0 67.429 8.571 38.286 13.143 60.857 49.714t22.571 83.429q0 46.286-21.143 80.571t-57.143 49.714q-27.429 10.857-74.286 10.857h-210.286v-61.143h52.571v-317.143h-52.571zM439.429 238.857h-68v153.143h68.571q29.714 0 47.429-10.286 32-18.857 32-65.714 0-50.857-35.429-68.571-17.714-8.571-44.571-8.571z" />
</font>
</defs>
</svg>
